<svg xmlns="http://www.w3.org/2000/svg" xmlns:xlink="http://www.w3.org/1999/xlink" viewBox="0 0 67 77">
  <defs>
    <path id="a" d="M35.7 0l1.1 15.8 5.1-15-3 15.6 8.8-13.2-7 14.2L52.5 7 42.1 19l14.2-7-13.1 8.9 15.5-3.1-10.9 3.8c-9.4-1.1-15.5-1.2-23.9 0l-11.2-3.8 15.6 3L15.1 12l14.2 7L18.9 7l12 10.4-7-14.2 8.9 13.1L29.5.8l5.2 15 1-15.8zm20.9 34.4c-1.6 10.9-7.2 29.1-12 38.2-2.1 4-6.6-5.5-6.9-7.7-.6-5.2-3.5-3.3-4.2.1-.6 2.5-2.2 11-5.2 6.2-6.6-10.6-9.9-26.4-13.6-38.3 2.8-4.8 6-6.8 11.1-8.9 7.9-2.6 12.4-3 20.5-.2 5.1 2.7 7.7 5.3 10.3 10.6z"/>
  </defs>
  <clipPath id="b">
    <use overflow="visible" xlink:href="#a"/>
  </clipPath>
  <g clip-path="url(#b)">
    <defs>
      <path id="c" d="M-205-309h495v765h-495z"/>
    </defs>
    <clipPath id="d">
      <use overflow="visible" xlink:href="#c"/>
    </clipPath>
    <path fill="#fffffe" d="M7.7-5h56v83.5h-56z" clip-path="url(#d)"/>
  </g>
  <g>
    <defs>
      <path id="e" d="M62.4 18.2c-.8-.8-.4-2.2.4-3.2 1.2-2.1 2.5-3.3 1.4-6.4-.5-1.4-1.5-1.8-2.7-2-2.1-.4-5.8 1.2-5.6 3.4.2 1.4-.2 1.2-.4 2-.1.2-.3.7-.1 1.1.2.5 0 .6 0 .8V15c.1.8 1.3.5 1.9.8 1.5.8.8 2.1-.4 3-1.3.9-3.3 2-5.8 3.1.5.1 1 .1 1.5.2 6 .8 15.6 4.1 13.5-1.2-.1-.1-.2-.3-.3-.4-.6-.9-2.5-1.4-3.4-2.3zm-16.1 5.5c-4.9 1.5-10.5 2.5-15.7 1.8 10.1 4.1 13.9 2.5 17.9 1.7 3.6-.7 2.6 4.1 2.3 7-.2 2.6-.5 5.9-1.8 11.2-1.3 5.3-.5 4.7-1.4 7.6-1.6 2.4-3.1-2.4-5.2-4-3-2.2-4.5-2.3-4.4-2.5.3-1.6 1.2-1.2 1.4-3.6.2-2.2-.2-3.5-1.1-4.1a2.7 2.7 0 0 0-3.9 1.3c-.2.6-.3 1.3-.4 2.4.2 2.9.6 2 1.2 3.8-.7.4-1 .7-2.2 1-2.7.9-5.3 4.2-6.9 5.9-.4.4-.9.9-1.3.2-2.6-8.1-3.1-15.7-5-22-1.3-4.1.4-5.2 3.3-4.4 5 1.4 11.8 4 17.9 1.9-6.3-.6-11-3-15.4-5.2-2.2.7-4.8 1.7-7.8 2.8-4.4 1.6-8.5 2.8-10.7 2.3 1.5 2.7 4.3 4.6 5.5 7.9 1.1 3.3-2 7.5 2.6 10.7 4.4 6.7 8.4 23.4 11.8 27.4 3.8 4.4 5.1 1.3 6.2-2.8 1.4-5 1.2-7.7 1.8-7.8.6-.1.8 1.8 2.7 7.4 1 3 3.8 5.4 5.9 5.1 3.4-.5 7.2-8.3 8.4-12.8 1.1-3.8 2-7.7 4.2-11.5 1.1-1.8 1.6-2.8 2.1-3.8 2-3.9 1.6-7 1.1-9.5 1.7-4 4.2-7.1 5.9-9.7-2.7.5-7.4-1-12.8-3.3-2.2-1-4.3-1.8-6.2-2.4zm-24.8-1.9c-1.3-.6-2.6-1-3.9-1.4-2.4-.7-4.8-1.7-5-3.7 1.5-.1 2.6-.7 2.8-1.7.2-.9-.4-3 0-4.1.3-1-.5-1.8-1.1-2.5-2.2-2.4-5.7-2-7.4.5-.9 1.3.3 3.6-.6 3.9-8.2.2-3.2 8.2-6.2 11.7 4.7-1.5 4.9-5.9 5.5-8 .8-2.7 5.2.9 2.6 3.7-.2.3-.4.5-.6.7-.5 3 4.3 2.7 10.1 1.6 1.4-.2 2.6-.5 3.8-.7zM7 21.7c0 .2-.1.3-.1.4 0-.1.1-.2.1-.4zm19.2 37.8c.5 3.1 3.4 10.9 4.1 10.2.1-3.3 1-8.2 1.1-11.9 0-.8.3-2.6.3-3.5 0-.6.3-1.7-.6-1.1-2.4 1.6-5.4 3.3-4.9 6.3zm14.2 1c.1 5 1.3 9.9 1.9 10 1.4-3.1 2.7-8.3 3.7-11.8.3-1 .7-1.9-.1-2.5-1.8-1.2-4.5-2.6-5-4.1-.5.5-.7 3.6-.7 5.4.1 1.1.2 2.1.2 3z"/>
    </defs>
    <clipPath id="f">
      <use overflow="visible" xlink:href="#e"/>
    </clipPath>
    <g clip-path="url(#f)">
      <defs>
        <path id="g" d="M-205-309h495v765h-495z"/>
      </defs>
      <clipPath id="h">
        <use overflow="visible" xlink:href="#g"/>
      </clipPath>
      <path fill="#54803d" d="M-4.9 1.4h76.5V82H-4.9z" clip-path="url(#h)"/>
    </g>
  </g>
</svg>
