<?xml version="1.0" encoding="utf-8"?>
<!-- Generator: Adobe Illustrator 22.1.0, SVG Export Plug-In . SVG Version: 6.00 Build 0)  -->
<svg version="1.1" id="Слой_1" xmlns="http://www.w3.org/2000/svg" xmlns:xlink="http://www.w3.org/1999/xlink" x="0px" y="0px"
	 viewBox="0 0 227.6 48.4" style="enable-background:new 0 0 227.6 48.4;" xml:space="preserve">
<style type="text/css">
	.st0{fill:#C2C2C2;}
	.st1{fill:#FFFFFF;}
</style>
<g>
	<path class="st0" d="M67.9,12.3L67.9,12.3h-7.5v5.2h6.9v3.9h-6.9v8.2h-4.8V8.4h12.3V12.3z M82.6,29.6L82.6,29.6h-4.4v-2.2h-0.1
		c-1,1.7-2.5,2.5-4.5,2.5c-1.5,0-2.6-0.4-3.5-1.2c-0.8-0.8-1.3-1.9-1.3-3.3c0-2.9,1.7-4.6,5.2-5.1l4.1-0.5c0-1.7-0.9-2.5-2.7-2.5
		s-3.5,0.5-5.1,1.6v-3.5c0.7-0.3,1.5-0.6,2.7-0.9c1.1-0.3,2.2-0.4,3.1-0.4c4.3,0,6.5,2.2,6.5,6.5C82.6,20.6,82.6,29.6,82.6,29.6z
		 M78.2,23.5L78.2,23.5v-1l-2.8,0.4c-1.5,0.2-2.3,0.9-2.3,2.1c0,0.5,0.2,1,0.6,1.3c0.4,0.3,0.9,0.5,1.5,0.5c0.9,0,1.6-0.3,2.1-0.9
		C77.9,25.2,78.2,24.4,78.2,23.5z M110.4,29.6L110.4,29.6h-4.7V21c0-2.2-0.8-3.3-2.4-3.3c-0.8,0-1.4,0.3-1.9,1s-0.7,1.5-0.7,2.5v8.5
		H96V21c0-2.1-0.8-3.2-2.4-3.2c-0.8,0-1.4,0.3-1.9,0.9S91,20.2,91,21.3v8.4h-4.7V14.5H91v2.4h0.1c0.5-0.8,1.2-1.5,2-2
		c0.9-0.5,1.8-0.8,2.9-0.8c2.1,0,3.6,0.9,4.4,2.8c1.2-1.9,2.8-2.8,5.1-2.8c3.3,0,4.9,2,4.9,6.1L110.4,29.6L110.4,29.6z M116.3,12.1
		L116.3,12.1c-0.8,0-1.4-0.2-1.9-0.7s-0.8-1-0.8-1.7s0.2-1.3,0.8-1.7c0.5-0.4,1.2-0.7,1.9-0.7c0.8,0,1.4,0.2,1.9,0.7
		c0.5,0.4,0.7,1,0.7,1.7s-0.2,1.3-0.7,1.7C117.8,11.8,117.1,12.1,116.3,12.1z M118.6,24.5L118.6,24.5c0,0.6,0.2,1.1,0.5,1.5
		c0.3,0.3,0.7,0.5,1.2,0.5c0.3,0,0.5,0,0.8-0.1c0.3,0,0.5-0.1,0.8-0.1v3.3c-0.6,0.1-1.2,0.3-1.8,0.4c-0.6,0.1-1.3,0.1-2,0.1
		c-0.6,0-1.2-0.1-1.7-0.3s-0.9-0.5-1.3-0.9c-0.4-0.4-0.6-0.9-0.8-1.4c-0.2-0.6-0.3-1.2-0.3-1.9V14.5h4.6V24.5z M128.3,24.5
		L128.3,24.5c0,0.6,0.2,1.1,0.5,1.5c0.3,0.3,0.7,0.5,1.2,0.5c0.3,0,0.5,0,0.8-0.1c0.3,0,0.5-0.1,0.8-0.1v3.3
		c-0.6,0.1-1.2,0.3-1.8,0.4c-0.6,0.1-1.3,0.1-2,0.1c-0.6,0-1.2-0.1-1.7-0.3s-0.9-0.5-1.3-0.9c-0.4-0.4-0.6-0.9-0.8-1.4
		c-0.2-0.6-0.3-1.2-0.3-1.9V7.2h4.6V24.5z M147.9,14.5L147.9,14.5l-6.2,16.4c-1.5,3.9-3.7,5.9-6.7,5.9c-1.1,0-2.1-0.1-2.8-0.4v-3.7
		c0.6,0.4,1.3,0.5,2,0.5c1.2,0,2-0.6,2.5-1.7l0.8-1.9l-6.2-15.1h5.2l2.8,9.2c0.2,0.6,0.3,1.2,0.4,2h0.1c0.1-0.6,0.3-1.2,0.5-2
		l2.9-9.2C143.2,14.5,147.9,14.5,147.9,14.5z M149.3,28.8L149.3,28.8v-4.7c0.9,0.7,1.8,1.3,2.8,1.6c1,0.4,2,0.5,3,0.5
		c0.6,0,1.1-0.1,1.6-0.2c0.4-0.1,0.8-0.3,1.1-0.4c0.3-0.2,0.5-0.4,0.7-0.7c0.2-0.3,0.2-0.5,0.2-0.9s-0.1-0.8-0.4-1.1
		c-0.2-0.3-0.6-0.6-1-0.9s-0.9-0.5-1.5-0.8s-1.2-0.5-1.8-0.8c-1.7-0.7-2.9-1.5-3.7-2.5s-1.2-2.2-1.2-3.6c0-1.1,0.2-2.1,0.7-2.8
		c0.4-0.8,1.1-1.4,1.8-2c0.8-0.5,1.7-0.9,2.7-1.1c1-0.2,2.1-0.4,3.2-0.4c1.1,0,2.1,0.1,2.9,0.2c0.9,0.1,1.6,0.3,2.4,0.6v4.4
		c-0.4-0.2-0.7-0.5-1.2-0.7c-0.4-0.2-0.9-0.3-1.3-0.5c-0.4-0.1-0.9-0.2-1.3-0.3c-0.4-0.1-0.9-0.1-1.2-0.1c-0.5,0-1,0.1-1.5,0.2
		c-0.4,0.1-0.8,0.3-1.1,0.4c-0.3,0.2-0.5,0.4-0.7,0.7c-0.2,0.3-0.2,0.6-0.2,0.9c0,0.4,0.1,0.7,0.3,1s0.5,0.6,0.8,0.8
		c0.3,0.2,0.8,0.5,1.3,0.7s1.1,0.5,1.7,0.7c0.8,0.4,1.6,0.7,2.3,1.1s1.3,0.9,1.7,1.4c0.5,0.5,0.9,1.1,1.1,1.7
		c0.3,0.6,0.4,1.4,0.4,2.3c0,1.2-0.2,2.2-0.7,3c-0.4,0.8-1.1,1.5-1.8,1.9c-0.8,0.5-1.7,0.9-2.7,1.1c-1,0.2-2.1,0.3-3.2,0.3
		c-1.2,0-2.3-0.1-3.3-0.3C151,29.5,150.1,29.2,149.3,28.8z M190.8,29.6L190.8,29.6h-4.7V21c0-2.2-0.8-3.3-2.4-3.3
		c-0.8,0-1.4,0.3-1.9,1s-0.7,1.5-0.7,2.5v8.5h-4.7V21c0-2.1-0.8-3.2-2.4-3.2c-0.8,0-1.4,0.3-1.9,0.9s-0.7,1.5-0.7,2.6v8.4h-4.7V14.5
		h4.7v2.4h0.1c0.5-0.8,1.2-1.5,2-2c0.9-0.5,1.8-0.8,2.9-0.8c2.1,0,3.6,0.9,4.4,2.8c1.2-1.9,2.8-2.8,5.1-2.8c3.3,0,4.9,2,4.9,6.1
		L190.8,29.6L190.8,29.6z M196.8,12.1L196.8,12.1c-0.8,0-1.4-0.2-1.9-0.7s-0.8-1-0.8-1.7s0.2-1.3,0.8-1.7c0.5-0.4,1.2-0.7,1.9-0.7
		c0.8,0,1.4,0.2,1.9,0.7c0.5,0.4,0.7,1,0.7,1.7s-0.2,1.3-0.7,1.7C198.3,11.8,197.6,12.1,196.8,12.1z M199.1,24.5L199.1,24.5
		c0,0.6,0.2,1.1,0.5,1.5c0.3,0.3,0.7,0.5,1.2,0.5c0.3,0,0.5,0,0.8-0.1c0.3,0,0.5-0.1,0.8-0.1v3.3c-0.6,0.1-1.2,0.3-1.8,0.4
		c-0.6,0.1-1.3,0.1-2,0.1c-0.6,0-1.2-0.1-1.7-0.3s-0.9-0.5-1.3-0.9c-0.4-0.4-0.6-0.9-0.8-1.4c-0.2-0.6-0.3-1.2-0.3-1.9V14.5h4.6
		V24.5z M208.8,24.5L208.8,24.5c0,0.6,0.2,1.1,0.5,1.5c0.3,0.3,0.7,0.5,1.2,0.5c0.3,0,0.5,0,0.8-0.1c0.3,0,0.5-0.1,0.8-0.1v3.3
		c-0.6,0.1-1.2,0.3-1.8,0.4c-0.6,0.1-1.3,0.1-2,0.1c-0.6,0-1.2-0.1-1.7-0.3s-0.9-0.5-1.3-0.9c-0.4-0.4-0.6-0.9-0.8-1.4
		c-0.2-0.6-0.3-1.2-0.3-1.9V7.2h4.6V24.5z M227.6,23.4L227.6,23.4h-9.9c0.2,2.2,1.5,3.3,4.2,3.3c1.7,0,3.1-0.4,4.4-1.2v3.4
		c-1.4,0.7-3.2,1.1-5.5,1.1c-2.4,0-4.3-0.7-5.7-2c-1.3-1.4-2-3.2-2-5.7s0.7-4.5,2.2-6s3.3-2.2,5.4-2.2c2.2,0,3.9,0.7,5.1,2
		s1.8,3.1,1.8,5.3V23.4z M223.3,20.5c0-2.2-0.9-3.3-2.6-3.3c-0.7,0-1.4,0.3-1.9,0.9c-0.6,0.6-0.9,1.4-1,2.3h5.5V20.5z"/>
	<path class="st0" d="M57.6,46.4L57.6,46.4c-0.4,0-0.8-0.1-1.1-0.2c-0.3-0.1-0.6-0.3-0.9-0.6s-0.4-0.6-0.6-1
		c-0.1-0.4-0.2-0.9-0.2-1.4s0.1-1,0.2-1.4s0.3-0.7,0.6-1c0.3-0.3,0.6-0.5,0.9-0.7c0.3-0.1,0.7-0.2,1.2-0.2c0.2,0,0.4,0,0.6,0
		s0.4,0.1,0.5,0.1s0.3,0.1,0.4,0.2c0.1,0.1,0.3,0.1,0.4,0.2v1l0,0c-0.1-0.1-0.2-0.1-0.3-0.2c-0.1-0.1-0.3-0.2-0.4-0.3
		c-0.2-0.1-0.3-0.2-0.5-0.2c-0.2-0.1-0.4-0.1-0.7-0.1c-0.3,0-0.5,0.1-0.8,0.2c-0.2,0.1-0.5,0.3-0.6,0.5c-0.2,0.2-0.3,0.5-0.4,0.8
		s-0.1,0.7-0.1,1.1c0,0.4,0.1,0.8,0.2,1.1s0.2,0.6,0.4,0.8c0.2,0.2,0.4,0.4,0.6,0.5s0.5,0.2,0.8,0.2c0.2,0,0.5,0,0.7-0.1
		s0.4-0.1,0.6-0.2c0.2-0.1,0.3-0.2,0.4-0.3s0.2-0.2,0.3-0.2h-0.2v1c-0.1,0.1-0.3,0.1-0.4,0.2c-0.1,0.1-0.3,0.1-0.4,0.2
		c-0.2,0.1-0.4,0.1-0.5,0.1C58.1,46.3,57.9,46.4,57.6,46.4 M61.9,46.2L61.9,46.2v-5.6h-2.1v-0.8h5.1v0.8h-2.1v5.6H61.9z M70,40.6
		L70,40.6c0.2,0.3,0.4,0.6,0.6,1c0.1,0.4,0.2,0.9,0.2,1.4s-0.1,1-0.2,1.4c-0.1,0.4-0.3,0.8-0.6,1c-0.3,0.3-0.6,0.5-0.9,0.7
		c-0.3,0.1-0.7,0.2-1.1,0.2c-0.4,0-0.8-0.1-1.2-0.2c-0.3-0.1-0.6-0.4-0.9-0.6c-0.2-0.3-0.4-0.6-0.6-1c-0.1-0.4-0.2-0.9-0.2-1.4
		s0.1-1,0.2-1.4c0.1-0.4,0.3-0.8,0.6-1c0.2-0.3,0.5-0.5,0.9-0.6c0.3-0.1,0.7-0.2,1.2-0.2c0.4,0,0.8,0.1,1.2,0.2
		C69.5,40.1,69.8,40.4,70,40.6z M69.9,43.1L69.9,43.1c0-0.4,0-0.8-0.1-1.1c-0.1-0.3-0.2-0.6-0.4-0.8s-0.4-0.4-0.6-0.5
		s-0.5-0.2-0.8-0.2s-0.6,0.1-0.8,0.2c-0.2,0.1-0.4,0.3-0.6,0.5s-0.3,0.5-0.4,0.8c-0.1,0.3-0.1,0.7-0.1,1.1c0,0.8,0.2,1.5,0.5,1.9
		c0.4,0.4,0.8,0.7,1.4,0.7c0.6,0,1.1-0.2,1.4-0.7C69.7,44.5,69.9,43.9,69.9,43.1z M77.1,46.2L77.1,46.2h-0.8v-5.5l-1.7,3.7h-0.5
		l-1.6-3.7v5.5h-0.8v-6.3h1.2l1.6,3.5l1.5-3.5h1.2L77.1,46.2L77.1,46.2z M77.7,46.2L77.7,46.2l2.1-6.3h1l2.1,6.3H82l-0.6-1.8H79
		l-0.6,1.8H77.7z M81.3,43.8L81.3,43.8l-1-3l-1,3H81.3z M85.1,46.2L85.1,46.2v-5.6H83v-0.8h5.1v0.8H86v5.6H85.1z M93.2,40.6
		L93.2,40.6c0.2,0.3,0.4,0.6,0.6,1C93.9,42,94,42.5,94,43s-0.1,1-0.2,1.4c-0.1,0.4-0.3,0.8-0.6,1c-0.3,0.3-0.6,0.5-0.9,0.7
		c-0.3,0.1-0.7,0.2-1.1,0.2c-0.4,0-0.8-0.1-1.2-0.2c-0.3-0.1-0.6-0.4-0.9-0.6c-0.2-0.3-0.4-0.6-0.6-1c-0.1-0.4-0.2-0.9-0.2-1.4
		s0.1-1,0.2-1.4c0.1-0.4,0.3-0.8,0.6-1c0.2-0.3,0.5-0.5,0.9-0.6c0.3-0.1,0.7-0.2,1.2-0.2c0.4,0,0.8,0.1,1.2,0.2
		C92.7,40.1,93,40.4,93.2,40.6z M93.1,43.1L93.1,43.1c0-0.4,0-0.8-0.1-1.1s-0.2-0.6-0.4-0.8s-0.4-0.4-0.6-0.5
		c-0.2-0.1-0.5-0.2-0.8-0.2s-0.6,0.1-0.8,0.2c-0.2,0.1-0.4,0.3-0.6,0.5s-0.3,0.5-0.4,0.8c-0.1,0.3-0.1,0.7-0.1,1.1
		c0,0.8,0.2,1.5,0.5,1.9c0.4,0.4,0.8,0.7,1.4,0.7s1.1-0.2,1.4-0.7C92.9,44.5,93.1,43.9,93.1,43.1z M99.6,46.2L99.6,46.2h-0.8v-5.6
		h-2.2c0,0.3,0,0.6,0,0.9c0,0.3,0,0.6,0,0.8c0,0.6-0.1,1.1-0.1,1.5s-0.1,0.7-0.2,1c-0.1,0.3-0.2,0.5-0.3,0.6
		c-0.1,0.2-0.2,0.3-0.3,0.4c-0.1,0.1-0.3,0.2-0.4,0.3c-0.1,0.1-0.3,0.1-0.5,0.1c-0.1,0-0.1,0-0.2,0c-0.1,0-0.1,0-0.1,0v-0.8h0.1h0.1
		c0,0,0,0,0.1,0s0.2,0,0.3,0s0.2-0.1,0.2-0.1c0.2-0.2,0.3-0.5,0.4-1c0.1-0.5,0.2-1.1,0.2-2c0-0.3,0-0.6,0-1.1s0-0.9,0-1.3h3.8v6.3
		H99.6z M105.3,40.6L105.3,40.6c0.2,0.3,0.4,0.6,0.6,1c0.1,0.4,0.2,0.9,0.2,1.4s-0.1,1-0.2,1.4c-0.1,0.4-0.3,0.8-0.6,1
		c-0.3,0.3-0.6,0.5-0.9,0.7c-0.3,0.1-0.7,0.2-1.1,0.2c-0.4,0-0.8-0.1-1.2-0.2c-0.3-0.1-0.6-0.4-0.9-0.6c-0.2-0.3-0.4-0.6-0.6-1
		c-0.1-0.4-0.2-0.9-0.2-1.4s0.1-1,0.2-1.4c0.1-0.4,0.3-0.8,0.6-1c0.2-0.3,0.5-0.5,0.9-0.6c0.3-0.1,0.7-0.2,1.2-0.2
		c0.4,0,0.8,0.1,1.2,0.2C104.8,40.1,105.1,40.4,105.3,40.6z M105.2,43.1L105.2,43.1c0-0.4,0-0.8-0.1-1.1s-0.2-0.6-0.4-0.8
		s-0.4-0.4-0.6-0.5c-0.2-0.1-0.5-0.2-0.8-0.2s-0.6,0.1-0.8,0.2c-0.2,0.1-0.4,0.3-0.6,0.5c-0.2,0.2-0.3,0.5-0.4,0.8
		c-0.1,0.3-0.1,0.7-0.1,1.1c0,0.8,0.2,1.5,0.5,1.9c0.4,0.4,0.8,0.7,1.4,0.7c0.6,0,1.1-0.2,1.4-0.7C105,44.5,105.2,43.9,105.2,43.1z
		 M110.8,40.7L110.8,40.7h-2.9v5.6h-0.8V40h3.8v0.7H110.8z M116,46.2L116,46.2h-0.8v-5l-2.9,5h-0.9v-6.3h0.8v5l2.8-5h0.9L116,46.2
		L116,46.2z M121.3,46.2L121.3,46.2h-0.8v-2.5h-1l-1.9,2.5h-1l2-2.7c-0.4-0.1-0.8-0.4-1-0.7s-0.4-0.7-0.4-1.2c0-0.3,0.1-0.6,0.2-0.8
		c0.1-0.2,0.3-0.4,0.5-0.6c0.2-0.1,0.4-0.2,0.7-0.3s0.6-0.1,0.9-0.1h1.7v6.4H121.3z M120.5,43L120.5,43v-2.4h-0.9
		c-0.2,0-0.4,0-0.6,0c-0.1,0-0.3,0.1-0.4,0.2c-0.1,0.1-0.2,0.2-0.3,0.4s-0.1,0.3-0.1,0.5s0,0.4,0.1,0.6c0.1,0.1,0.1,0.3,0.3,0.4
		c0.1,0.1,0.3,0.2,0.5,0.3c0.2,0,0.4,0.1,0.6,0.1L120.5,43L120.5,43z M130.1,48.2L130.1,48.2h-0.8v-1.5h-4.1v1.5h-0.8V46h0.3
		c0.4-0.6,0.7-1.4,0.9-2.4s0.3-2.1,0.3-3.2h3.5V46h0.6v2.2H130.1z M128.7,46L128.7,46v-4.9h-1.9c0,1-0.2,2-0.4,2.8s-0.5,1.5-0.8,2.1
		C125.6,46,128.7,46,128.7,46z M135.6,46.8L135.6,46.8h-0.8v-5.6h-2.2c0,0.3,0,0.6,0,0.9c0,0.3,0,0.6,0,0.8c0,0.6-0.1,1.1-0.1,1.5
		s-0.1,0.7-0.2,1c-0.1,0.3-0.2,0.5-0.3,0.6c-0.1,0.2-0.2,0.3-0.3,0.4c-0.1,0.1-0.3,0.2-0.4,0.3c-0.1,0.1-0.3,0.1-0.5,0.1
		c-0.1,0-0.1,0-0.2,0c-0.1,0-0.1,0-0.1,0V46h0.1h0.1c0,0,0,0,0.1,0s0.2,0,0.3,0s0.2-0.1,0.2-0.1c0.2-0.2,0.3-0.5,0.4-1
		c0.1-0.5,0.2-1.1,0.2-2c0-0.3,0-0.6,0-1.1s0-0.9,0-1.3h3.8v6.3H135.6z M140.9,46.8L140.9,46.8h-0.8v-2.5h-1l-1.9,2.5h-1l2-2.7
		c-0.4-0.1-0.8-0.4-1-0.7s-0.4-0.7-0.4-1.2c0-0.3,0.1-0.6,0.2-0.8c0.1-0.2,0.3-0.4,0.5-0.6c0.2-0.1,0.4-0.2,0.7-0.3s0.6-0.1,0.9-0.1
		h1.7v6.4H140.9z M140.1,43.6L140.1,43.6v-2.4h-0.9c-0.2,0-0.4,0-0.6,0c-0.1,0-0.3,0.1-0.4,0.2c-0.1,0.1-0.2,0.2-0.3,0.4
		s-0.1,0.3-0.1,0.5s0,0.4,0.1,0.6c0.1,0.1,0.1,0.3,0.3,0.4c0.1,0.1,0.3,0.2,0.5,0.3c0.2,0,0.4,0.1,0.6,0.1L140.1,43.6L140.1,43.6z
		 M150.1,48.2L150.1,48.2h-0.8v-1.5h-4.1v1.5h-0.8V46h0.3c0.4-0.6,0.7-1.4,0.9-2.4s0.3-2.1,0.3-3.2h3.5V46h0.6v2.2H150.1z M148.6,46
		L148.6,46v-4.9h-1.9c0,1-0.2,2-0.4,2.8s-0.5,1.5-0.8,2.1C145.5,46,148.6,46,148.6,46z M150.9,46.8L150.9,46.8v-6.3h4v0.8h-3.1V43
		h2.9v0.8h-2.9V46h3.1v0.8H150.9z M157.3,46.8L157.3,46.8v-5.6h-2.1v-0.8h5.1v0.8h-2.1v5.6H157.3z M160.9,46.8L160.9,46.8v-6.3h4
		v0.8h-3.1V43h2.9v0.8h-2.9V46h3.1v0.8H160.9z M170.3,46.8L170.3,46.8h-0.8v-5l-2.9,5h-0.9v-6.3h0.8v5l2.8-5h0.9L170.3,46.8
		L170.3,46.8z M169.7,38.5L169.7,38.5c0,0.4-0.1,0.8-0.4,1c-0.3,0.3-0.7,0.4-1.2,0.4s-0.9-0.1-1.2-0.4c-0.3-0.3-0.4-0.6-0.4-1h0.8
		c0,0.3,0.1,0.5,0.2,0.7c0.1,0.1,0.3,0.2,0.6,0.2s0.5-0.1,0.6-0.2c0.1-0.1,0.2-0.4,0.2-0.7H169.7z M178.9,46.8L178.9,46.8h-0.8v-5
		l-2.9,5h-0.9v-6.3h0.8v5l2.8-5h0.9L178.9,46.8L178.9,46.8z M187.2,44.8L187.2,44.8c0,0.3-0.1,0.6-0.2,0.8c-0.1,0.2-0.3,0.4-0.5,0.6
		c-0.2,0.2-0.5,0.3-0.8,0.4c-0.3,0.1-0.6,0.1-1.1,0.1h-1.8v-6.3h1.7c0.5,0,0.8,0,1,0s0.4,0.1,0.7,0.2c0.2,0.1,0.4,0.3,0.5,0.5
		s0.2,0.4,0.2,0.7s-0.1,0.6-0.2,0.8c-0.2,0.2-0.4,0.4-0.7,0.6l0,0c0.4,0.1,0.7,0.3,0.9,0.6C187.1,44.1,187.2,44.4,187.2,44.8z
		 M186.1,42L186.1,42c0-0.2,0-0.3-0.1-0.4c-0.1-0.1-0.1-0.2-0.2-0.3c-0.1-0.1-0.3-0.1-0.5-0.1s-0.4,0-0.7,0h-0.8V43h1
		c0.3,0,0.5,0,0.6,0s0.3-0.1,0.4-0.2c0.1-0.1,0.2-0.2,0.3-0.3C186,42.3,186.1,42.2,186.1,42z M186.4,44.9L186.4,44.9
		c0-0.2,0-0.4-0.1-0.6c-0.1-0.2-0.2-0.3-0.4-0.4c-0.1-0.1-0.3-0.1-0.4-0.1c-0.2,0-0.4,0-0.7,0h-1v2.3h0.7c0.4,0,0.7,0,0.9-0.1
		c0.2,0,0.4-0.1,0.6-0.2c0.2-0.1,0.3-0.2,0.3-0.4C186.3,45.3,186.4,45.1,186.4,44.9z M191.4,43.7L191.4,43.7
		c0.1,0.1,0.3,0.3,0.4,0.5c0.1,0.2,0.1,0.4,0.1,0.7s-0.1,0.5-0.2,0.8c-0.1,0.2-0.3,0.5-0.5,0.6c-0.2,0.2-0.5,0.3-0.8,0.4
		c-0.3,0.1-0.6,0.1-1,0.1s-0.8,0-1.1-0.1s-0.6-0.2-0.8-0.2v-0.9h0.1c0.2,0.1,0.5,0.3,0.8,0.4c0.3,0.1,0.7,0.2,1,0.2
		c0.2,0,0.4,0,0.6-0.1c0.2-0.1,0.4-0.1,0.5-0.3c0.1-0.1,0.2-0.3,0.3-0.4c0.1-0.1,0.1-0.3,0.1-0.6c0-0.2,0-0.4-0.1-0.5
		s-0.2-0.3-0.3-0.4c-0.1-0.1-0.3-0.2-0.5-0.2s-0.4-0.1-0.6-0.1h-0.7V43h0.6c0.4,0,0.8-0.1,1.1-0.3s0.4-0.4,0.4-0.8
		c0-0.2,0-0.3-0.1-0.4c-0.1-0.1-0.2-0.2-0.3-0.3s-0.3-0.1-0.4-0.2c-0.1,0-0.3,0-0.5,0s-0.4,0-0.5,0.1c-0.2,0-0.3,0.1-0.5,0.2
		c-0.1,0.1-0.3,0.1-0.4,0.2c-0.1,0.1-0.2,0.1-0.3,0.2h-0.1v-0.9c0.2-0.1,0.5-0.2,0.8-0.3s0.7-0.1,1-0.1s0.6,0,0.8,0.1
		s0.5,0.1,0.6,0.3c0.2,0.1,0.4,0.3,0.5,0.5s0.2,0.4,0.2,0.7s-0.1,0.6-0.3,0.9c-0.2,0.3-0.5,0.4-0.9,0.5v0.1c0.1,0,0.3,0.1,0.5,0.1
		C191.1,43.5,191.2,43.6,191.4,43.7z M196.7,42.4L196.7,42.4c0,0.3,0,0.5-0.1,0.8c-0.1,0.2-0.2,0.5-0.4,0.6
		c-0.2,0.2-0.5,0.4-0.8,0.5s-0.7,0.2-1.1,0.2h-0.7v2.4h-0.8v-6.3h1.6c0.4,0,0.7,0,1,0.1s0.5,0.2,0.7,0.3c0.2,0.2,0.4,0.4,0.6,0.6
		C196.7,41.7,196.7,42,196.7,42.4z M195.9,42.4L195.9,42.4c0-0.2,0-0.4-0.1-0.6c-0.1-0.2-0.2-0.3-0.3-0.4c-0.1-0.1-0.3-0.2-0.5-0.2
		s-0.4-0.1-0.7-0.1h-0.7v2.5h0.6c0.3,0,0.6,0,0.8-0.1s0.4-0.2,0.5-0.3s0.2-0.3,0.3-0.4C195.8,42.8,195.9,42.6,195.9,42.4z M202,41.2
		L202,41.2c0.2,0.3,0.4,0.6,0.6,1c0.1,0.4,0.2,0.9,0.2,1.4s-0.1,1-0.2,1.4c-0.1,0.4-0.3,0.8-0.6,1c-0.3,0.3-0.6,0.5-0.9,0.7
		c-0.3,0.1-0.7,0.2-1.1,0.2c-0.4,0-0.8-0.1-1.2-0.2c-0.3-0.1-0.6-0.4-0.9-0.6c-0.2-0.3-0.4-0.6-0.6-1c-0.1-0.4-0.2-0.9-0.2-1.4
		s0.1-1,0.2-1.4c0.1-0.4,0.3-0.8,0.6-1c0.2-0.3,0.5-0.5,0.9-0.6c0.3-0.1,0.7-0.2,1.2-0.2c0.4,0,0.8,0.1,1.2,0.2
		C201.5,40.7,201.8,40.9,202,41.2z M201.9,43.6L201.9,43.6c0-0.4,0-0.8-0.1-1.1s-0.2-0.6-0.4-0.8s-0.4-0.4-0.6-0.5
		c-0.2-0.1-0.5-0.2-0.8-0.2s-0.6,0.1-0.8,0.2c-0.2,0.1-0.4,0.3-0.6,0.5c-0.2,0.2-0.3,0.5-0.4,0.8c-0.1,0.3-0.1,0.7-0.1,1.1
		c0,0.8,0.2,1.5,0.5,1.9c0.4,0.4,0.8,0.7,1.4,0.7c0.6,0,1.1-0.2,1.4-0.7C201.7,45.1,201.9,44.4,201.9,43.6z M206.2,46.9L206.2,46.9
		c-0.4,0-0.8-0.1-1.1-0.2c-0.3-0.1-0.6-0.3-0.9-0.6c-0.3-0.3-0.4-0.6-0.6-1c-0.1-0.4-0.2-0.9-0.2-1.4s0.1-1,0.2-1.4
		c0.1-0.4,0.3-0.7,0.6-1s0.6-0.5,0.9-0.7c0.3-0.1,0.7-0.2,1.2-0.2c0.2,0,0.4,0,0.6,0c0.2,0,0.4,0.1,0.5,0.1s0.3,0.1,0.4,0.2
		c0.1,0.1,0.3,0.1,0.4,0.2v1h-0.1c-0.1-0.1-0.2-0.2-0.3-0.2c-0.1-0.1-0.3-0.2-0.4-0.3c-0.2-0.1-0.3-0.2-0.5-0.2
		c-0.2-0.1-0.4-0.1-0.7-0.1s-0.5,0.1-0.8,0.2c-0.2,0.1-0.5,0.3-0.6,0.5c-0.2,0.2-0.3,0.5-0.4,0.8c-0.1,0.3-0.1,0.7-0.1,1.1
		c0,0.4,0.1,0.8,0.2,1.1c0.1,0.3,0.2,0.6,0.4,0.8s0.4,0.4,0.6,0.5c0.2,0.1,0.5,0.2,0.8,0.2c0.2,0,0.5,0,0.7-0.1s0.4-0.1,0.6-0.2
		c0.2-0.1,0.3-0.2,0.4-0.3c0.1-0.1,0.2-0.2,0.3-0.2h0.1v1c-0.1,0.1-0.3,0.1-0.4,0.2c-0.1,0.1-0.3,0.1-0.4,0.2
		c-0.2,0.1-0.4,0.1-0.5,0.1C206.7,46.9,206.5,46.9,206.2,46.9z M213.6,46.8L213.6,46.8h-0.8v-5.6h-2.2c0,0.3,0,0.6,0,0.9
		c0,0.3,0,0.6,0,0.8c0,0.6-0.1,1.1-0.1,1.5s-0.1,0.7-0.2,1c-0.1,0.3-0.2,0.5-0.3,0.6c-0.1,0.2-0.2,0.3-0.3,0.4
		c-0.1,0.1-0.3,0.2-0.4,0.3c-0.1,0.1-0.3,0.1-0.5,0.1c-0.1,0-0.1,0-0.2,0c-0.1,0-0.1,0-0.1,0V46h0.1h0.1c0,0,0,0,0.1,0s0.2,0,0.3,0
		s0.2-0.1,0.2-0.1c0.2-0.2,0.3-0.5,0.4-1c0.1-0.5,0.2-1.1,0.2-2c0-0.3,0-0.6,0-1.1s0-0.9,0-1.3h3.8v6.3H213.6z M219.1,44.8
		L219.1,44.8c0,0.3-0.1,0.6-0.2,0.8c-0.1,0.3-0.3,0.5-0.5,0.6c-0.2,0.2-0.5,0.3-0.8,0.4c-0.3,0.1-0.6,0.1-1.1,0.1h-1.7v-6.3h0.8v2.5
		h0.9c0.4,0,0.8,0,1.1,0.1c0.3,0,0.5,0.2,0.8,0.4c0.2,0.2,0.4,0.4,0.5,0.6C219,44.2,219.1,44.5,219.1,44.8z M218.2,44.8L218.2,44.8
		c0-0.2,0-0.4-0.1-0.6c-0.1-0.2-0.2-0.3-0.3-0.4c-0.2-0.1-0.3-0.2-0.5-0.2s-0.5,0-0.9,0h-0.6V46h0.6c0.4,0,0.7,0,0.9-0.1
		c0.2,0,0.4-0.1,0.5-0.2c0.2-0.1,0.3-0.2,0.3-0.4C218.1,45.3,218.2,45.1,218.2,44.8z M220.5,46.8L220.5,46.8h-0.9v-6.3h0.8v6.3
		H220.5z M226.2,46.8h-1l-1.5-2.5l-1.6,2.5h-0.9l2-3.2l-2-3.2h1l1.5,2.5l1.5-2.5h0.9l-2,3.1L226.2,46.8z"/>
	<path class="st1" d="M22.7,0l0.7,10l3.2-9.5l-1.9,9.8L30.2,2l-4.4,9l7.5-6.6L26.7,12l9-4.4l-8.3,5.6l9.8-2l-6.9,2.4
		c-5.9-0.7-9.8-0.8-15.1,0l-7.1-2.4l9.8,1.9L9.6,7.5l9,4.4L12,4.4l7.6,6.6l-4.4-9l5.6,8.3l-2-9.8l3.3,9.5L22.7,0z M35.9,21.7
		c-1,6.9-4.6,18.4-7.6,24.1c-1.3,2.5-4.2-3.5-4.4-4.9c-0.4-3.3-2.2-2.1-2.7,0c-0.3,1.6-1.4,7-3.3,3.9c-4.2-6.7-6.3-16.7-8.6-24.2
		c1.8-3,3.8-4.3,7-5.6c5-1.7,7.8-1.9,13-0.1C32.6,16.8,34.3,18.4,35.9,21.7z"/>
	<path class="st0" d="M39.6,11.5L39.6,11.5c-0.5-0.5-0.3-1.4,0.2-2c0.7-1.3,1.6-2.1,0.9-4.1c-0.3-0.9-1-1.1-1.7-1.3
		c-1.3-0.3-3.7,0.8-3.5,2.1c0.1,0.9-0.1,0.8-0.3,1.3c0,0.2-0.2,0.4-0.1,0.7s0,0.4,0,0.5c0,0.3,0,0.6,0,0.7c0.1,0.5,0.8,0.3,1.2,0.5
		c1,0.5,0.5,1.3-0.3,1.9s-2.1,1.3-3.6,2c0.3,0,0.6,0.1,1,0.1c3.8,0.5,9.9,2.6,8.5-0.8c-0.1-0.1-0.1-0.2-0.2-0.3
		C41.3,12.4,40.1,12.1,39.6,11.5 M29.4,14.9L29.4,14.9c-3.1,1-6.7,1.6-9.9,1.1c6.4,2.6,8.8,1.6,11.3,1.1c2.2-0.4,1.7,2.6,1.5,4.4
		c-0.2,1.6-0.3,3.7-1.1,7.1c-0.8,3.3-0.3,3-0.9,4.8c-1,1.5-2-1.5-3.3-2.5c-1.9-1.4-2.8-1.5-2.8-1.6c0.2-1,0.8-0.8,0.9-2.3
		c0.1-1.4-0.1-2.2-0.7-2.6c-0.9-0.6-2.1-0.1-2.5,0.8c-0.1,0.4-0.2,0.8-0.3,1.5c0.1,1.8,0.4,1.3,0.8,2.4c-0.4,0.3-0.6,0.4-1.4,0.7
		c-1.7,0.5-3.4,2.6-4.3,3.7c-0.2,0.3-0.6,0.6-0.8,0.1c-1.6-5.1-1.9-9.9-3.2-13.9c-0.8-2.6,0.2-3.3,2.1-2.8c3.1,0.9,7.5,2.5,11.3,1.2
		c-4-0.4-6.9-1.9-9.7-3.3c-1.4,0.5-3,1.1-4.9,1.7c-2.8,1-5.3,1.7-6.8,1.4c1,1.7,2.7,2.9,3.5,5c0.7,2.1-1.3,4.8,1.7,6.8
		c2.8,4.2,5.3,14.8,7.5,17.3c2.4,2.8,3.2,0.8,3.9-1.8c0.9-3.2,0.8-4.9,1.1-4.9c0.4,0,0.5,1.1,1.7,4.6c0.6,1.9,2.4,3.4,3.7,3.2
		c2.1-0.3,4.5-5.3,5.3-8.1c0.7-2.4,1.3-4.9,2.6-7.3c0.7-1.2,1-1.8,1.3-2.4c1.3-2.5,1-4.4,0.7-6c1.1-2.6,2.6-4.5,3.7-6.1
		c-1.7,0.3-4.7-0.7-8.1-2.1C31.9,15.9,30.6,15.4,29.4,14.9z M13.7,13.8L13.7,13.8c-0.8-0.3-1.6-0.7-2.5-0.9c-1.5-0.4-3-1.1-3.2-2.4
		c0.9-0.1,1.6-0.4,1.7-1.1c0.1-0.6-0.2-1.9,0-2.6C9.9,6.2,9.4,5.7,9,5.2C7.6,3.7,5.4,4,4.4,5.6C3.8,6.4,4.6,7.9,4,8.1
		c-5.2,0.1-2.1,5.2-4,7.4c3-1,3.1-3.7,3.5-5c0.5-1.7,3.3,0.6,1.6,2.3C5,13,4.8,13.1,4.7,13.3c-0.3,1.9,2.7,1.7,6.4,1
		C12.2,14.1,13,13.9,13.7,13.8z M4.6,13.7L4.6,13.7c0,0.1-0.1,0.2-0.1,0.2C4.5,13.9,4.5,13.8,4.6,13.7z M16.7,37.6L16.7,37.6
		c0.3,2,2.1,6.9,2.6,6.5c0.1-2.1,0.6-5.2,0.7-7.5c0-0.5,0.2-1.6,0.2-2.2c0-0.4,0.2-1-0.4-0.7C18.2,34.6,16.3,35.7,16.7,37.6z
		 M25.7,38.2c0,3.1,0.8,6.3,1.2,6.3c0.9-2,1.7-5.3,2.3-7.4c0.2-0.7,0.5-1.2-0.1-1.6c-1.2-0.7-2.9-1.6-3.2-2.6
		c-0.3,0.3-0.4,2.3-0.4,3.4C25.6,37,25.7,37.6,25.7,38.2z"/>
</g>
</svg>
