<svg xmlns="http://www.w3.org/2000/svg" style="border: 0 !important; clip: rect(0 0 0 0) !important; height: 1px !important; margin: -1px !important; overflow: hidden !important; padding: 0 !important; position: absolute !important; width: 1px !important;" class="root-svg-symbols-element">
    <symbol id="burger" viewBox="0 0 100 100">
      <path fill="red" fill-rule="evenodd" d="M0 14v-2h16v2H0zm0-8h16v2H0V6zm0-6h16v2H0V0z"/>
    </symbol>
    <symbol id="close" viewBox="0 0 8 8">
      <path d="M5.4,4l2.3,2.3c0.4,0.4,0.4,1,0,1.4c-0.4,0.4-1,0.4-1.4,0L4,5.4L1.7,7.7c-0.4,0.4-1,0.4-1.4,0c-0.4-0.4-0.4-1,0-1.4L2.6,4L0.3,1.7c-0.4-0.4-0.4-1,0-1.4s1-0.4,1.4,0L4,2.6l2.3-2.3c0.4-0.4,1-0.4,1.4,0s0.4,1,0,1.4L5.4,4z"/>
    </symbol>
    <symbol id="fb" viewBox="0 0 16 32">
      <path d="M10.64 32h-7.095v-16.002h-3.545v-5.514h3.545v-3.31c0-4.498 2.001-7.174 7.688-7.174h4.734v5.516h-2.959c-2.214 0-2.361 0.771-2.361 2.209l-0.010 2.76h5.362l-0.627 5.514h-4.734v16.002h0.001z"/>
    </symbol>
    <symbol id="insta" viewBox="0 0 87 87">
      <path d="M57.8,0H29.3C13.1,0,0,13.1,0,29.3v28.5C0,73.9,13.1,87,29.3,87h28.5C73.9,87,87,73.9,87,57.8V29.3C87,13.1,73.9,0,57.8,0z M67.3,24.6c-2.7,0-4.9-2.2-4.9-4.9s2.2-4.9,4.9-4.9c2.7,0,4.9,2.2,4.9,4.9S69.9,24.6,67.3,24.6z M61.8,43.5 c0,10.1-8.2,18.3-18.3,18.3s-18.3-8.2-18.3-18.3s8.2-18.3,18.3-18.3S61.8,33.4,61.8,43.5z"/>
    </symbol></svg>