<svg xmlns="http://www.w3.org/2000/svg" xmlns:xlink="http://www.w3.org/1999/xlink" viewBox="0 0 8 8"><defs><path fill="#fff" id="a" d="M10 11c.6 0 1-.4 1-1V-2c0-.6-.4-1-1-1H-2.5l-6.1 7 6.1 7H10zm0-16c1.7 0 3 1.3 3 3v12c0 1.7-1.3 3-3 3H-3c-.3 0-.6-.1-.8-.3l-7-8c-.3-.4-.3-.9 0-1.3l7-8c.2-.3.5-.4.8-.4h13zM5.4 4l2.3 2.3c.4.4.4 1 0 1.4-.4.4-1 .4-1.4 0L4 5.4 1.7 7.7c-.4.4-1 .4-1.4 0-.4-.4-.4-1 0-1.4L2.6 4 .3 1.7C-.1 1.3-.1.7.3.3c.4-.4 1-.4 1.4 0L4 2.6 6.3.3c.4-.4 1-.4 1.4 0 .4.4.4 1 0 1.4L5.4 4z"/></defs><clipPath id="b"><use overflow="visible" xlink:href="#a"/></clipPath><g clip-path="url(#b)"><defs><path id="c" d="M-16-10h34v28h-34z"/></defs><clipPath id="d"><use overflow="visible" xlink:href="#c"/></clipPath><g clip-path="url(#d)"><defs><path id="e" d="M0 0h8v8H0z"/></defs><clipPath id="f"><use overflow="visible" xlink:href="#e"/></clipPath><path fill="#fff" d="M-16-10h34v28h-34z" clip-path="url(#f)"/></g></g></svg>