<svg version="1.1" id="Слой_1" xmlns="http://www.w3.org/2000/svg" x="0" y="0" viewBox="0 0 228.3 48.5" xml:space="preserve"><style>.st0{fill:#fff}</style><path class="st0" d="M67.9,12.5h-7.5v5.2h6.9v3.9h-6.9v8.2h-4.8V8.6h12.3V12.5z M82.6,29.8h-4.4v-2.2h-0.1c-1,1.7-2.5,2.5-4.5,2.5	c-1.5,0-2.6-0.4-3.5-1.2c-0.8-0.8-1.3-1.9-1.3-3.3c0-2.9,1.7-4.6,5.2-5.1l4.1-0.5c0-1.7-0.9-2.5-2.7-2.5c-1.8,0-3.5,0.5-5.1,1.6	v-3.5c0.7-0.3,1.5-0.6,2.7-0.9c1.1-0.3,2.2-0.4,3.1-0.4c4.3,0,6.5,2.2,6.5,6.5C82.6,20.8,82.6,29.8,82.6,29.8z M78.2,23.7v-1	l-2.8,0.4c-1.5,0.2-2.3,0.9-2.3,2.1c0,0.5,0.2,1,0.6,1.3s0.9,0.5,1.5,0.5c0.9,0,1.6-0.3,2.1-0.9C77.9,25.4,78.2,24.6,78.2,23.7z M110.4,29.8h-4.7v-8.6c0-2.2-0.8-3.3-2.4-3.3c-0.8,0-1.4,0.3-1.9,1s-0.7,1.5-0.7,2.5v8.5H96v-8.7c0-2.1-0.8-3.2-2.4-3.2	c-0.8,0-1.4,0.3-1.9,0.9S91,20.4,91,21.5v8.4h-4.7V14.7H91v2.4h0.1c1-1.7,2.9-2.8,4.9-2.8c2.1,0,3.6,0.9,4.4,2.8	c1.2-1.9,2.8-2.8,5.1-2.8c3.3,0,4.9,2,4.9,6.1L110.4,29.8L110.4,29.8z M116.3,12.3c-0.8,0-1.4-0.2-1.9-0.7s-0.8-1-0.8-1.7	s0.2-1.3,0.8-1.7c0.5-0.4,1.2-0.7,1.9-0.7c0.8,0,1.4,0.2,1.9,0.7c0.5,0.4,0.7,1,0.7,1.7s-0.2,1.3-0.7,1.7	C117.8,12,117.1,12.3,116.3,12.3z M118.6,24.7c0,0.6,0.2,1.1,0.5,1.5c0.3,0.3,0.7,0.5,1.2,0.5c0.3,0,0.5,0,0.8-0.1	c0.3,0,0.5-0.1,0.8-0.1v3.3c-0.6,0.1-1.2,0.3-1.8,0.4c-0.6,0.1-1.3,0.1-2,0.1c-1.1,0.1-2.2-0.4-3-1.2c-0.4-0.4-0.6-0.9-0.8-1.4	c-0.2-0.6-0.3-1.2-0.3-1.9V14.7h4.6C118.6,14.7,118.6,24.7,118.6,24.7z M128.3,24.7c0,0.6,0.2,1.1,0.5,1.5c0.3,0.3,0.7,0.5,1.2,0.5	c0.3,0,0.5,0,0.8-0.1c0.3,0,0.5-0.1,0.8-0.1v3.3c-0.6,0.1-1.2,0.3-1.8,0.4c-0.6,0.1-1.3,0.1-2,0.1c-1.1,0.1-2.2-0.4-3-1.2	c-0.4-0.4-0.6-0.9-0.8-1.4c-0.2-0.6-0.3-1.2-0.3-1.9V7.4h4.6C128.3,7.4,128.3,24.7,128.3,24.7z M147.9,14.7l-6.2,16.4	C140.2,35,138,37,135,37c-1.1,0-2.1-0.1-2.8-0.4v-3.7c0.6,0.4,1.3,0.5,2,0.5c1.2,0,2-0.6,2.5-1.7l0.8-1.9l-6.2-15.1h5.2l2.8,9.2	c0.2,0.6,0.3,1.2,0.4,2h0.1c0.1-0.6,0.3-1.2,0.5-2l2.9-9.2C143.2,14.7,147.9,14.7,147.9,14.7z M149.3,29v-4.7c2,1.7,4.8,2.4,7.4,1.9	c0.4-0.1,0.8-0.3,1.1-0.4c0.3-0.2,0.5-0.4,0.7-0.7c0.2-0.3,0.2-0.5,0.2-0.9s-0.1-0.8-0.4-1.1c-0.2-0.3-0.6-0.6-1-0.9	s-0.9-0.5-1.5-0.8s-1.2-0.5-1.8-0.8c-1.4-0.5-2.7-1.4-3.7-2.5c-0.8-1-1.2-2.2-1.2-3.6c0-1.1,0.2-2.1,0.7-2.8c0.4-0.8,1.1-1.4,1.8-2	c0.8-0.5,1.7-0.9,2.7-1.1c1-0.2,2.1-0.4,3.2-0.4c1.1,0,2.1,0.1,2.9,0.2c0.9,0.1,1.6,0.3,2.4,0.6v4.4c-0.4-0.2-0.7-0.5-1.2-0.7	c-0.4-0.2-0.9-0.3-1.3-0.5l-1.3-0.3c-0.4-0.1-0.9-0.1-1.2-0.1c-0.5,0-1,0.1-1.5,0.2c-0.4,0.1-0.8,0.3-1.1,0.4	c-0.3,0.2-0.5,0.4-0.7,0.7c-0.2,0.3-0.2,0.6-0.2,0.9c0,0.4,0.1,0.7,0.3,1c0.2,0.3,0.5,0.6,0.8,0.8c0.3,0.2,0.8,0.5,1.3,0.7	s1.1,0.5,1.7,0.7c0.8,0.4,1.6,0.7,2.3,1.1c0.7,0.4,1.3,0.9,1.7,1.4c0.5,0.5,0.9,1.1,1.1,1.7c0.3,0.6,0.4,1.4,0.4,2.3	c0,1.2-0.2,2.2-0.7,3c-0.4,0.8-1.1,1.5-1.8,1.9c-0.8,0.5-1.7,0.9-2.7,1.1c-1,0.2-2.1,0.3-3.2,0.3c-1.2,0-2.3-0.1-3.3-0.3	C151,29.7,150.1,29.4,149.3,29z M190.8,29.8h-4.7v-8.6c0-2.2-0.8-3.3-2.4-3.3c-0.8,0-1.4,0.3-1.9,1s-0.7,1.5-0.7,2.5v8.5h-4.7v-8.7	c0-2.1-0.8-3.2-2.4-3.2c-0.8,0-1.4,0.3-1.9,0.9s-0.7,1.5-0.7,2.6v8.4h-4.7V14.7h4.7v2.4h0.1c1-1.7,2.9-2.8,4.9-2.8	c2.1,0,3.6,0.9,4.4,2.8c1.2-1.9,2.8-2.8,5.1-2.8c3.3,0,4.9,2,4.9,6.1L190.8,29.8L190.8,29.8z M196.8,12.3c-0.8,0-1.4-0.2-1.9-0.7	s-0.8-1-0.8-1.7s0.2-1.3,0.8-1.7c0.5-0.4,1.2-0.7,1.9-0.7c0.8,0,1.4,0.2,1.9,0.7c0.5,0.4,0.7,1,0.7,1.7s-0.2,1.3-0.7,1.7	C198.3,12,197.6,12.3,196.8,12.3z M199.1,24.7c0,0.6,0.2,1.1,0.5,1.5c0.3,0.3,0.7,0.5,1.2,0.5c0.3,0,0.5,0,0.8-0.1	c0.3,0,0.5-0.1,0.8-0.1v3.3c-0.6,0.1-1.2,0.3-1.8,0.4c-0.6,0.1-1.3,0.1-2,0.1c-1.1,0.1-2.2-0.4-3-1.2c-0.4-0.4-0.6-0.9-0.8-1.4	c-0.2-0.6-0.3-1.2-0.3-1.9V14.7h4.6C199.1,14.7,199.1,24.7,199.1,24.7z M208.8,24.7c0,0.6,0.2,1.1,0.5,1.5c0.3,0.3,0.7,0.5,1.2,0.5	c0.3,0,0.5,0,0.8-0.1c0.3,0,0.5-0.1,0.8-0.1v3.3c-0.6,0.1-1.2,0.3-1.8,0.4c-0.6,0.1-1.3,0.1-2,0.1c-1.1,0.1-2.2-0.4-3-1.2	c-0.4-0.4-0.6-0.9-0.8-1.4c-0.2-0.6-0.3-1.2-0.3-1.9V7.4h4.6C208.8,7.4,208.8,24.7,208.8,24.7z M227.6,23.6h-9.9	c0.2,2.2,1.5,3.3,4.2,3.3c1.7,0,3.1-0.4,4.4-1.2v3.4c-1.4,0.7-3.2,1.1-5.5,1.1c-2.4,0-4.3-0.7-5.7-2c-1.3-1.4-2-3.2-2-5.7	s0.7-4.5,2.2-6s3.3-2.2,5.4-2.2c2.2,0,3.9,0.7,5.1,2s1.8,3.1,1.8,5.3C227.6,21.6,227.6,23.6,227.6,23.6z M223.3,20.7	c0-2.2-0.9-3.3-2.6-3.3c-0.7,0-1.4,0.3-1.9,0.9c-0.6,0.6-0.9,1.4-1,2.3h5.5V20.7z M57.6,46.6c-0.4,0-0.8-0.1-1.1-0.2	c-0.3-0.1-0.6-0.3-0.9-0.6s-0.4-0.6-0.6-1c-0.1-0.4-0.2-0.9-0.2-1.4s0.1-1,0.2-1.4s0.3-0.7,0.6-1c0.3-0.3,0.6-0.5,0.9-0.7	c0.3-0.1,0.7-0.2,1.2-0.2h0.6c0.2,0,0.4,0.1,0.5,0.1s0.3,0.1,0.4,0.2c0.1,0.1,0.3,0.1,0.4,0.2v1c-0.1-0.1-0.2-0.1-0.3-0.2	c-0.1-0.1-0.3-0.2-0.4-0.3c-0.2-0.1-0.3-0.2-0.5-0.2c-0.2-0.1-0.4-0.1-0.7-0.1c-0.3,0-0.5,0.1-0.8,0.2c-0.2,0.1-0.5,0.3-0.6,0.5	c-0.2,0.2-0.3,0.5-0.4,0.8s-0.1,0.7-0.1,1.1c0,0.4,0.1,0.8,0.2,1.1s0.2,0.6,0.4,0.8c0.2,0.2,0.4,0.4,0.6,0.5s0.5,0.2,0.8,0.2	c0.2,0,0.5,0,0.7-0.1s0.4-0.1,0.6-0.2c0.2-0.1,0.3-0.2,0.4-0.3s0.2-0.2,0.3-0.2h-0.2v1c-0.1,0.1-0.3,0.1-0.4,0.2	c-0.1,0.1-0.3,0.1-0.4,0.2c-0.2,0.1-0.4,0.1-0.5,0.1C58.1,46.5,57.9,46.6,57.6,46.6 M61.9,46.4v-5.6h-2.1V40h5.1v0.8h-2.1v5.6H61.9z M70,40.8c0.2,0.3,0.4,0.6,0.6,1c0.1,0.4,0.2,0.9,0.2,1.4s-0.1,1-0.2,1.4s-0.3,0.8-0.6,1c-0.3,0.3-0.6,0.5-0.9,0.7	c-0.3,0.1-0.7,0.2-1.1,0.2s-0.8-0.1-1.2-0.2c-0.3-0.1-0.6-0.4-0.9-0.6c-0.2-0.3-0.4-0.6-0.6-1c-0.1-0.4-0.2-0.9-0.2-1.4	s0.1-1,0.2-1.4s0.3-0.8,0.6-1c0.2-0.3,0.5-0.5,0.9-0.6c0.8-0.3,1.6-0.3,2.4,0C69.5,40.3,69.8,40.6,70,40.8z M69.9,43.3	c0-0.4,0-0.8-0.1-1.1s-0.2-0.6-0.4-0.8c-0.2-0.2-0.4-0.4-0.6-0.5s-0.5-0.2-0.8-0.2s-0.6,0.1-0.8,0.2c-0.2,0.1-0.4,0.3-0.6,0.5	s-0.3,0.5-0.4,0.8s-0.1,0.7-0.1,1.1c0,0.8,0.2,1.5,0.5,1.9c0.4,0.4,0.8,0.7,1.4,0.7s1.1-0.2,1.4-0.7S69.9,44.1,69.9,43.3z M77.1,46.4h-0.8v-5.5l-1.7,3.7h-0.5l-1.6-3.7v5.5h-0.8v-6.3h1.2l1.6,3.5l1.5-3.5h1.2L77.1,46.4L77.1,46.4z M77.7,46.4l2.1-6.3h1	l2.1,6.3H82l-0.6-1.8H79l-0.6,1.8H77.7z M81.3,44l-1-3l-1,3H81.3z M85.1,46.4v-5.6H83V40h5.1v0.8H86v5.6H85.1z M93.2,40.8	c0.2,0.3,0.4,0.6,0.6,1c0.1,0.4,0.2,0.9,0.2,1.4s-0.1,1-0.2,1.4c-0.1,0.4-0.3,0.8-0.6,1c-0.3,0.3-0.6,0.5-0.9,0.7	c-0.3,0.1-0.7,0.2-1.1,0.2c-0.4,0-0.8-0.1-1.2-0.2c-0.3-0.1-0.6-0.4-0.9-0.6c-0.2-0.3-0.4-0.6-0.6-1c-0.1-0.4-0.2-0.9-0.2-1.4	s0.1-1,0.2-1.4s0.3-0.8,0.6-1c0.2-0.3,0.5-0.5,0.9-0.6c0.8-0.3,1.6-0.3,2.4,0C92.7,40.3,93,40.6,93.2,40.8z M93.1,43.3	c0-0.4,0-0.8-0.1-1.1s-0.2-0.6-0.4-0.8S92.2,41,92,40.9c-0.2-0.1-0.5-0.2-0.8-0.2s-0.6,0.1-0.8,0.2c-0.2,0.1-0.4,0.3-0.6,0.5	s-0.3,0.5-0.4,0.8s-0.1,0.7-0.1,1.1c0,0.8,0.2,1.5,0.5,1.9c0.4,0.4,0.8,0.7,1.4,0.7c0.6,0,1.1-0.2,1.4-0.7	C92.9,44.7,93.1,44.1,93.1,43.3L93.1,43.3z M99.6,46.4h-0.8v-5.6h-2.2v1.7c0,0.6-0.1,1.1-0.1,1.5s-0.1,0.7-0.2,1	c-0.1,0.3-0.2,0.5-0.3,0.6c-0.1,0.2-0.2,0.3-0.3,0.4c-0.1,0.1-0.3,0.2-0.4,0.3c-0.1,0.1-0.3,0.1-0.5,0.1h-0.3v-0.8h0.6	c0.1,0,0.2-0.1,0.2-0.1c0.2-0.2,0.3-0.5,0.4-1c0.1-0.5,0.2-1.1,0.2-2v-1.1v-1.3h3.8L99.6,46.4L99.6,46.4z M105.3,40.8	c0.2,0.3,0.4,0.6,0.6,1c0.1,0.4,0.2,0.9,0.2,1.4s-0.1,1-0.2,1.4c-0.1,0.4-0.3,0.8-0.6,1c-0.3,0.3-0.6,0.5-0.9,0.7	c-0.3,0.1-0.7,0.2-1.1,0.2c-0.4,0-0.8-0.1-1.2-0.2c-0.3-0.1-0.6-0.4-0.9-0.6c-0.2-0.3-0.4-0.6-0.6-1c-0.1-0.4-0.2-0.9-0.2-1.4	s0.1-1,0.2-1.4c0.1-0.4,0.3-0.8,0.6-1c0.2-0.3,0.5-0.5,0.9-0.6c0.8-0.3,1.6-0.3,2.4,0C104.8,40.3,105.1,40.6,105.3,40.8z M105.2,43.3c0-0.4,0-0.8-0.1-1.1s-0.2-0.6-0.4-0.8s-0.4-0.4-0.6-0.5c-0.2-0.1-0.5-0.2-0.8-0.2s-0.6,0.1-0.8,0.2	c-0.2,0.1-0.4,0.3-0.6,0.5c-0.2,0.2-0.3,0.5-0.4,0.8c-0.1,0.3-0.1,0.7-0.1,1.1c0,0.8,0.2,1.5,0.5,1.9c0.4,0.4,0.8,0.7,1.4,0.7	c0.6,0,1.1-0.2,1.4-0.7C105,44.7,105.2,44.1,105.2,43.3L105.2,43.3z M110.8,40.9h-2.9v5.6h-0.8v-6.3h3.8v0.7L110.8,40.9z M116,46.4	h-0.8v-5l-2.9,5h-0.9v-6.3h0.8v5l2.8-5h0.9L116,46.4L116,46.4z M121.3,46.4h-0.8v-2.5h-1l-1.9,2.5h-1l2-2.7c-0.4-0.1-0.8-0.4-1-0.7	s-0.4-0.7-0.4-1.2c0-0.3,0.1-0.6,0.2-0.8c0.1-0.2,0.3-0.4,0.5-0.6c0.2-0.1,0.4-0.2,0.7-0.3s0.6-0.1,0.9-0.1h1.7v6.4L121.3,46.4z M120.5,43.2v-2.4H119c-0.1,0-0.3,0.1-0.4,0.2c-0.1,0.1-0.2,0.2-0.3,0.4s-0.1,0.3-0.1,0.5s0,0.4,0.1,0.6c0.1,0.1,0.1,0.3,0.3,0.4	c0.1,0.1,0.3,0.2,0.5,0.3c0.2,0,0.4,0.1,0.6,0.1L120.5,43.2L120.5,43.2z M130.1,48.4h-0.8v-1.5h-4.1v1.5h-0.8v-2.2h0.3	c0.4-0.6,0.7-1.4,0.9-2.4s0.3-2.1,0.3-3.2h3.5v5.6h0.6v2.2L130.1,48.4z M128.7,46.2v-4.9h-1.9c0,1.7-0.5,3.4-1.2,4.9	C125.6,46.2,128.7,46.2,128.7,46.2z M135.6,47h-0.8v-5.6h-2.2v1.7c0,0.6-0.1,1.1-0.1,1.5s-0.1,0.7-0.2,1s-0.2,0.5-0.3,0.6	c-0.1,0.2-0.2,0.3-0.3,0.4c-0.1,0.1-0.3,0.2-0.4,0.3S131,47,130.8,47h-0.3v-0.8h0.6c0.1,0,0.2-0.1,0.2-0.1c0.2-0.2,0.3-0.5,0.4-1	c0.1-0.5,0.2-1.1,0.2-2V42v-1.3h3.8L135.6,47L135.6,47z M140.9,47h-0.8v-2.5h-1l-1.9,2.5h-1l2-2.7c-0.4-0.1-0.8-0.4-1-0.7	c-0.2-0.3-0.4-0.7-0.4-1.2c0-0.3,0.1-0.6,0.2-0.8c0.1-0.2,0.3-0.4,0.5-0.6c0.2-0.1,0.4-0.2,0.7-0.3c0.3-0.1,0.6-0.1,0.9-0.1h1.7V47	L140.9,47z M140.1,43.8v-2.4h-1.5c-0.1,0-0.3,0.1-0.4,0.2c-0.1,0.1-0.2,0.2-0.3,0.4s-0.1,0.3-0.1,0.5s0,0.4,0.1,0.6	c0.1,0.1,0.1,0.3,0.3,0.4c0.1,0.1,0.3,0.2,0.5,0.3c0.2,0,0.4,0.1,0.6,0.1L140.1,43.8L140.1,43.8z M150.1,48.4h-0.8v-1.5h-4.1v1.5	h-0.8v-2.2h0.3c0.4-0.6,0.7-1.4,0.9-2.4c0.2-1,0.3-2.1,0.3-3.2h3.5v5.6h0.6v2.2L150.1,48.4z M148.6,46.2v-4.9h-1.9	c0,1.7-0.5,3.4-1.2,4.9H148.6L148.6,46.2z M150.9,47v-6.3h4v0.8h-3.1v1.7h2.9V44h-2.9v2.2h3.1V47H150.9z M157.3,47v-5.6h-2.1v-0.8	h5.1v0.8h-2.1V47H157.3z M160.9,47v-6.3h4v0.8h-3.1v1.7h2.9V44h-2.9v2.2h3.1V47H160.9z M170.3,47h-0.8v-5l-2.9,5h-0.9v-6.3h0.8v5	l2.8-5h0.9L170.3,47L170.3,47z M169.7,38.7c0,0.4-0.1,0.8-0.4,1c-0.3,0.3-0.7,0.4-1.2,0.4s-0.9-0.1-1.2-0.4c-0.3-0.3-0.4-0.6-0.4-1	h0.8c0,0.3,0.1,0.5,0.2,0.7c0.1,0.1,0.3,0.2,0.6,0.2c0.3,0,0.5-0.1,0.6-0.2c0.1-0.1,0.2-0.4,0.2-0.7H169.7L169.7,38.7z M178.9,47	h-0.8v-5l-2.9,5h-0.9v-6.3h0.8v5l2.8-5h0.9V47H178.9z M187.2,45c0,0.3-0.1,0.6-0.2,0.8c-0.1,0.2-0.3,0.4-0.5,0.6	c-0.2,0.2-0.5,0.3-0.8,0.4c-0.3,0.1-0.6,0.1-1.1,0.1h-1.8v-6.3h2.7c0.2,0,0.4,0.1,0.7,0.2c0.2,0.1,0.4,0.3,0.5,0.5s0.2,0.4,0.2,0.7	s-0.1,0.6-0.2,0.8c-0.2,0.2-0.4,0.4-0.7,0.6c0.4,0.1,0.7,0.3,0.9,0.6C187.1,44.3,187.2,44.6,187.2,45L187.2,45z M186.1,42.2	c0-0.2,0-0.3-0.1-0.4c-0.1-0.1-0.1-0.2-0.2-0.3c-0.1-0.1-0.3-0.1-0.5-0.1h-1.5v1.8h1.6c0.1,0,0.3-0.1,0.4-0.2l0.3-0.3	C186,42.5,186.1,42.4,186.1,42.2z M186.4,45.1c0-0.2,0-0.4-0.1-0.6c-0.1-0.2-0.2-0.3-0.4-0.4c-0.1-0.1-0.3-0.1-0.4-0.1h-1.7v2.3h0.7	c0.4,0,0.7,0,0.9-0.1c0.2,0,0.4-0.1,0.6-0.2c0.2-0.1,0.3-0.2,0.3-0.4C186.3,45.5,186.4,45.3,186.4,45.1L186.4,45.1z M191.4,43.9	c0.1,0.1,0.3,0.3,0.4,0.5s0.1,0.4,0.1,0.7s-0.1,0.5-0.2,0.8c-0.1,0.2-0.3,0.5-0.5,0.6c-0.2,0.2-0.5,0.3-0.8,0.4	c-0.3,0.1-0.6,0.1-1,0.1s-0.8,0-1.1-0.1c-0.3-0.1-0.6-0.2-0.8-0.2v-0.9h0.1c0.2,0.1,0.5,0.3,0.8,0.4c0.3,0.1,0.7,0.2,1,0.2	c0.2,0,0.4,0,0.6-0.1c0.2-0.1,0.4-0.1,0.5-0.3c0.1-0.1,0.2-0.3,0.3-0.4c0.1-0.1,0.1-0.3,0.1-0.6c0-0.2,0-0.4-0.1-0.5	s-0.2-0.3-0.3-0.4c-0.1-0.1-0.3-0.2-0.5-0.2c-0.2,0-0.4-0.1-0.6-0.1h-0.7v-0.6h0.6c0.4,0,0.8-0.1,1.1-0.3c0.3-0.2,0.4-0.4,0.4-0.8	c0-0.2,0-0.3-0.1-0.4l-0.3-0.3c-0.1-0.1-0.3-0.1-0.4-0.2h-0.5c-0.2,0-0.4,0-0.5,0.1c-0.2,0-0.3,0.1-0.5,0.2	c-0.1,0.1-0.3,0.1-0.4,0.2c-0.1,0.1-0.2,0.1-0.3,0.2h-0.1V41c0.2-0.1,0.5-0.2,0.8-0.3c0.3-0.1,0.7-0.1,1-0.1c0.3,0,0.6,0,0.8,0.1	c0.2,0.1,0.5,0.1,0.6,0.3c0.2,0.1,0.4,0.3,0.5,0.5s0.2,0.4,0.2,0.7s-0.1,0.6-0.3,0.9c-0.2,0.3-0.5,0.4-0.9,0.5v0.1	c0.1,0,0.3,0.1,0.5,0.1C191.1,43.7,191.2,43.8,191.4,43.9L191.4,43.9z M196.7,42.6c0,0.3,0,0.5-0.1,0.8c-0.1,0.2-0.2,0.5-0.4,0.6	c-0.2,0.2-0.5,0.4-0.8,0.5c-0.3,0.1-0.7,0.2-1.1,0.2h-0.7v2.4h-0.8v-6.3h1.6c0.4,0,0.7,0,1,0.1c0.3,0.1,0.5,0.2,0.7,0.3l0.6,0.6	C196.7,41.8,196.7,42.6,196.7,42.6z M195.9,42.6c0-0.2,0-0.4-0.1-0.6c-0.1-0.2-0.2-0.3-0.3-0.4c-0.1-0.1-0.3-0.2-0.5-0.2	c-0.2,0-0.4-0.1-0.7-0.1h-0.7v2.5h0.6c0.3,0,0.6,0,0.8-0.1c0.2-0.1,0.4-0.2,0.5-0.3s0.2-0.3,0.3-0.4C195.8,43,195.9,42.8,195.9,42.6	L195.9,42.6z M202,41.4c0.2,0.3,0.4,0.6,0.6,1c0.1,0.4,0.2,0.9,0.2,1.4s-0.1,1-0.2,1.4c-0.1,0.4-0.3,0.8-0.6,1	c-0.3,0.3-0.6,0.5-0.9,0.7c-0.3,0.1-0.7,0.2-1.1,0.2s-0.8-0.1-1.2-0.2c-0.3-0.1-0.6-0.4-0.9-0.6c-0.2-0.3-0.4-0.6-0.6-1	c-0.1-0.4-0.2-0.9-0.2-1.4s0.1-1,0.2-1.4c0.1-0.4,0.3-0.8,0.6-1c0.2-0.3,0.5-0.5,0.9-0.6c0.8-0.3,1.6-0.3,2.4,0	C201.5,40.9,201.8,41.1,202,41.4z M201.9,43.8c0-0.4,0-0.8-0.1-1.1s-0.2-0.6-0.4-0.8c-0.2-0.2-0.4-0.4-0.6-0.5s-0.5-0.2-0.8-0.2	c-0.3,0-0.6,0.1-0.8,0.2c-0.2,0.1-0.4,0.3-0.6,0.5s-0.3,0.5-0.4,0.8c-0.1,0.3-0.1,0.7-0.1,1.1c0,0.8,0.2,1.5,0.5,1.9	c0.4,0.4,0.8,0.7,1.4,0.7s1.1-0.2,1.4-0.7C201.7,45.3,201.9,44.6,201.9,43.8L201.9,43.8z M206.2,47.1c-0.4,0-0.8-0.1-1.1-0.2	c-0.3-0.1-0.6-0.3-0.9-0.6s-0.4-0.6-0.6-1c-0.1-0.4-0.2-0.9-0.2-1.4s0.1-1,0.2-1.4c0.1-0.4,0.3-0.7,0.6-1c0.3-0.3,0.6-0.5,0.9-0.7	c0.3-0.1,0.7-0.2,1.2-0.2h0.6c0.2,0,0.4,0.1,0.5,0.1s0.3,0.1,0.4,0.2c0.1,0.1,0.3,0.1,0.4,0.2v1h-0.1c-0.1-0.1-0.2-0.2-0.3-0.2	c-0.1-0.1-0.3-0.2-0.4-0.3c-0.2-0.1-0.3-0.2-0.5-0.2c-0.2-0.1-0.4-0.1-0.7-0.1c-0.3,0-0.5,0.1-0.8,0.2c-0.2,0.1-0.5,0.3-0.6,0.5	c-0.2,0.2-0.3,0.5-0.4,0.8s-0.1,0.7-0.1,1.1c0,0.4,0.1,0.8,0.2,1.1s0.2,0.6,0.4,0.8c0.2,0.2,0.4,0.4,0.6,0.5	c0.2,0.1,0.5,0.2,0.8,0.2c0.2,0,0.5,0,0.7-0.1c0.2-0.1,0.4-0.1,0.6-0.2c0.2-0.1,0.3-0.2,0.4-0.3s0.2-0.2,0.3-0.2h0.1v1	c-0.1,0.1-0.3,0.1-0.4,0.2c-0.1,0.1-0.3,0.1-0.4,0.2c-0.2,0.1-0.4,0.1-0.5,0.1C206.7,47.1,206.5,47.1,206.2,47.1z M213.6,47h-0.8	v-5.6h-2.2v1.7c0,0.6-0.1,1.1-0.1,1.5s-0.1,0.7-0.2,1s-0.2,0.5-0.3,0.6c-0.1,0.2-0.2,0.3-0.3,0.4c-0.1,0.1-0.3,0.2-0.4,0.3	S209,47,208.8,47h-0.3v-0.8h0.6c0.1,0,0.2-0.1,0.2-0.1c0.2-0.2,0.3-0.5,0.4-1c0.1-0.5,0.2-1.1,0.2-2V42v-1.3h3.8V47H213.6z M219.1,45c0,0.3-0.1,0.6-0.2,0.8c-0.1,0.3-0.3,0.5-0.5,0.6c-0.2,0.2-0.5,0.3-0.8,0.4c-0.3,0.1-0.6,0.1-1.1,0.1h-1.7v-6.3h0.8v2.5	h0.9c0.4,0,0.8,0,1.1,0.1c0.3,0,0.5,0.2,0.8,0.4c0.2,0.2,0.4,0.4,0.5,0.6C219,44.4,219.1,44.7,219.1,45z M218.2,45	c0-0.2,0-0.4-0.1-0.6c-0.1-0.2-0.2-0.3-0.3-0.4c-0.2-0.1-0.3-0.2-0.5-0.2h-1.5v2.4h0.6c0.4,0,0.7,0,0.9-0.1c0.2,0,0.4-0.1,0.5-0.2	c0.2-0.1,0.3-0.2,0.3-0.4C218.1,45.5,218.2,45.3,218.2,45z M220.5,47h-0.9v-6.3h0.8V47H220.5z M226.2,47h-1l-1.5-2.5l-1.6,2.5h-0.9	l2-3.2l-2-3.2h1l1.5,2.5l1.5-2.5h0.9l-2,3.1C224.1,43.7,226.2,47,226.2,47z"/><path class="st0" d="M22.7,0.2l0.7,10l3.2-9.5l-1.9,9.8l5.5-8.3l-4.4,9l7.5-6.6l-6.6,7.6l9-4.4l-8.3,5.6l9.8-2l-6.9,2.4	c-5.9-0.7-9.8-0.8-15.1,0l-7.1-2.4l9.8,1.9L9.6,7.7l9,4.4L12,4.6l7.6,6.6l-4.4-9l5.6,8.3l-2-9.8l3.3,9.5	C22.1,10.2,22.7,0.2,22.7,0.2z M35.9,21.9c-1,6.9-4.6,18.4-7.6,24.1c-1.3,2.5-4.2-3.5-4.4-4.9c-0.4-3.3-2.2-2.1-2.7,0	c-0.3,1.6-1.4,7-3.3,3.9c-4.2-6.7-6.3-16.7-8.6-24.2c1.8-3,3.8-4.3,7-5.6c5-1.7,7.8-1.9,13-0.1C32.6,17,34.3,18.6,35.9,21.9z"/><path d="M39.6,11.7c-0.5-0.5-0.3-1.4,0.2-2c0.7-1.3,1.6-2.1,0.9-4.1c-0.3-0.9-1-1.1-1.7-1.3c-1.3-0.3-3.7,0.8-3.5,2.1	c0.1,0.9-0.1,0.8-0.3,1.3c0,0.2-0.2,0.4-0.1,0.7s0,0.4,0,0.5v0.7c0.1,0.5,0.8,0.3,1.2,0.5c1,0.5,0.5,1.3-0.3,1.9s-2.1,1.3-3.6,2	c0.3,0,0.6,0.1,1,0.1c3.8,0.5,9.9,2.6,8.5-0.8c-0.1-0.1-0.1-0.2-0.2-0.3C41.3,12.6,40.1,12.3,39.6,11.7 M29.4,15.1	c-3.1,1-6.7,1.6-9.9,1.1c6.4,2.6,8.8,1.6,11.3,1.1c2.2-0.4,1.7,2.6,1.5,4.4c-0.2,1.6-0.3,3.7-1.1,7.1c-0.8,3.3-0.3,3-0.9,4.8	c-1,1.5-2-1.5-3.3-2.5c-1.9-1.4-2.8-1.5-2.8-1.6c0.2-1,0.8-0.8,0.9-2.3c0.1-1.4-0.1-2.2-0.7-2.6c-0.9-0.6-2.1-0.1-2.5,0.8	c-0.1,0.4-0.2,0.8-0.3,1.5c0.1,1.8,0.4,1.3,0.8,2.4C22,29.6,21.8,29.7,21,30c-1.7,0.5-3.4,2.6-4.3,3.7c-0.2,0.3-0.6,0.6-0.8,0.1	c-1.6-5.1-1.9-9.9-3.2-13.9c-0.8-2.6,0.2-3.3,2.1-2.8c3.1,0.9,7.5,2.5,11.3,1.2c-4-0.4-6.9-1.9-9.7-3.3c-1.4,0.5-3,1.1-4.9,1.7	c-2.8,1-5.3,1.7-6.8,1.4c1,1.7,2.7,2.9,3.5,5c0.7,2.1-1.3,4.8,1.7,6.8c2.8,4.2,5.3,14.8,7.5,17.3c2.4,2.8,3.2,0.8,3.9-1.8	c0.9-3.2,0.8-4.9,1.1-4.9c0.4,0,0.5,1.1,1.7,4.6c0.6,1.9,2.4,3.4,3.7,3.2c2.1-0.3,4.5-5.3,5.3-8.1c0.7-2.4,1.3-4.9,2.6-7.3	c0.7-1.2,1-1.8,1.3-2.4c1.3-2.5,1-4.4,0.7-6c1.1-2.6,2.6-4.5,3.7-6.1c-1.7,0.3-4.7-0.7-8.1-2.1C31.9,16.1,30.6,15.6,29.4,15.1z M13.7,14c-0.8-0.3-1.6-0.7-2.5-0.9c-1.5-0.4-3-1.1-3.2-2.4c0.9-0.1,1.6-0.4,1.7-1.1C9.8,9,9.5,7.7,9.7,7C9.9,6.4,9.4,5.9,9,5.4	C8,4.2,6.2,4.1,5,5.1C4.7,5.3,4.6,5.5,4.4,5.8C3.8,6.6,4.6,8.1,4,8.3c-5.2,0.1-2.1,5.2-4,7.4c3-1,3.1-3.7,3.5-5C4,9,6.8,11.3,5.1,13	c-0.1,0.2-0.3,0.3-0.4,0.5c-0.3,1.9,2.7,1.7,6.4,1C12.2,14.3,13,14.1,13.7,14z M4.6,13.9c0,0.1-0.1,0.2-0.1,0.2S4.5,14,4.6,13.9z M16.7,37.8c0.3,2,2.1,6.9,2.6,6.5c0.1-2.1,0.6-5.2,0.7-7.5c0-0.5,0.2-1.6,0.2-2.2c0-0.4,0.2-1-0.4-0.7	C18.2,34.8,16.3,35.9,16.7,37.8z M25.7,38.4c0,3.1,0.8,6.3,1.2,6.3c0.9-2,1.7-5.3,2.3-7.4c0.2-0.7,0.5-1.2-0.1-1.6	c-1.2-0.7-2.9-1.6-3.2-2.6c-0.3,0.3-0.4,2.3-0.4,3.4C25.6,37.2,25.7,37.8,25.7,38.4z" fill="#588431"/></svg>