<svg version="1.1" id="Layer_1" xmlns="http://www.w3.org/2000/svg" xmlns:xlink="http://www.w3.org/1999/xlink" x="0" y="0" viewBox="0 0 90 90" xml:space="preserve"><defs><path id="SVGID_1_" d="M67.1,49.9H45c-2.7,0-4.9-2.2-4.9-4.9V18c0-2.7,2.2-4.9,4.9-4.9c2.7,0,4.9,2.2,4.9,4.9v22.1h17.2 c2.7,0,4.9,2.2,4.9,4.9S69.8,49.9,67.1,49.9z M45,0C20.1,0,0,20.1,0,45s20.1,45,45,45c24.8,0,45-20.1,45-45S69.8,0,45,0z"/></defs><use xlink:href="#SVGID_1_" overflow="visible" fill="#63bc68"/><clipPath id="SVGID_2_"><use xlink:href="#SVGID_1_" overflow="visible"/></clipPath><path clip-path="url(#SVGID_2_)" fill="#63bc68" stroke="#fff" stroke-miterlimit="10" d="M-5 -5H95V95H-5z"/><use xlink:href="#SVGID_1_" overflow="visible" fill="none" stroke="#fff" stroke-miterlimit="10"/></svg>