<svg xmlns="http://www.w3.org/2000/svg" id="Слой_1" viewBox="0 0 228.3 48.5"><path d="M67.9 12.5h-7.5v5.2h6.9v3.9h-6.9v8.2h-4.8V8.6h12.3v3.9zm14.7 17.3h-4.4v-2.2h-.1c-1 1.7-2.5 2.5-4.5 2.5-1.5 0-2.6-.4-3.5-1.2-.8-.8-1.3-1.9-1.3-3.3 0-2.9 1.7-4.6 5.2-5.1l4.1-.5c0-1.7-.9-2.5-2.7-2.5-1.8 0-3.5.5-5.1 1.6v-3.5c.7-.3 1.5-.6 2.7-.9 1.1-.3 2.2-.4 3.1-.4 4.3 0 6.5 2.2 6.5 6.5v9zm-4.4-6.1v-1l-2.8.4c-1.5.2-2.3.9-2.3 2.1 0 .5.2 1 .6 1.3s.9.5 1.5.5c.9 0 1.6-.3 2.1-.9.6-.7.9-1.5.9-2.4zm32.2 6.1h-4.7v-8.6c0-2.2-.8-3.3-2.4-3.3-.8 0-1.4.3-1.9 1s-.7 1.5-.7 2.5v8.5H96v-8.7c0-2.1-.8-3.2-2.4-3.2-.8 0-1.4.3-1.9.9s-.7 1.5-.7 2.6v8.4h-4.7V14.7H91v2.4h.1c1-1.7 2.9-2.8 4.9-2.8 2.1 0 3.6.9 4.4 2.8 1.2-1.9 2.8-2.8 5.1-2.8 3.3 0 4.9 2 4.9 6.1v9.4zm5.9-17.5c-.8 0-1.4-.2-1.9-.7s-.8-1-.8-1.7.2-1.3.8-1.7c.5-.4 1.2-.7 1.9-.7.8 0 1.4.2 1.9.7.5.4.7 1 .7 1.7s-.2 1.3-.7 1.7c-.4.4-1.1.7-1.9.7zm2.3 12.4c0 .6.2 1.1.5 1.5.3.3.7.5 1.2.5.3 0 .5 0 .8-.1.3 0 .5-.1.8-.1v3.3c-.6.1-1.2.3-1.8.4-.6.1-1.3.1-2 .1-1.1.1-2.2-.4-3-1.2-.4-.4-.6-.9-.8-1.4-.2-.6-.3-1.2-.3-1.9V14.7h4.6v10zm9.7 0c0 .6.2 1.1.5 1.5.3.3.7.5 1.2.5.3 0 .5 0 .8-.1.3 0 .5-.1.8-.1v3.3c-.6.1-1.2.3-1.8.4-.6.1-1.3.1-2 .1-1.1.1-2.2-.4-3-1.2-.4-.4-.6-.9-.8-1.4-.2-.6-.3-1.2-.3-1.9V7.4h4.6v17.3zm19.6-10l-6.2 16.4C140.2 35 138 37 135 37c-1.1 0-2.1-.1-2.8-.4v-3.7c.6.4 1.3.5 2 .5 1.2 0 2-.6 2.5-1.7l.8-1.9-6.2-15.1h5.2l2.8 9.2c.2.6.3 1.2.4 2h.1c.1-.6.3-1.2.5-2l2.9-9.2h4.7zm1.4 14.3v-4.7c2 1.7 4.8 2.4 7.4 1.9.4-.1.8-.3 1.1-.4.3-.2.5-.4.7-.7.2-.3.2-.5.2-.9s-.1-.8-.4-1.1c-.2-.3-.6-.6-1-.9s-.9-.5-1.5-.8-1.2-.5-1.8-.8c-1.4-.5-2.7-1.4-3.7-2.5-.8-1-1.2-2.2-1.2-3.6 0-1.1.2-2.1.7-2.8.4-.8 1.1-1.4 1.8-2 .8-.5 1.7-.9 2.7-1.1 1-.2 2.1-.4 3.2-.4s2.1.1 2.9.2c.9.1 1.6.3 2.4.6v4.4c-.4-.2-.7-.5-1.2-.7-.4-.2-.9-.3-1.3-.5l-1.3-.3c-.4-.1-.9-.1-1.2-.1-.5 0-1 .1-1.5.2-.4.1-.8.3-1.1.4-.3.2-.5.4-.7.7-.2.3-.2.6-.2.9 0 .4.1.7.3 1 .2.3.5.6.8.8.3.2.8.5 1.3.7s1.1.5 1.7.7c.8.4 1.6.7 2.3 1.1.7.4 1.3.9 1.7 1.4.5.5.9 1.1 1.1 1.7.3.6.4 1.4.4 2.3 0 1.2-.2 2.2-.7 3-.4.8-1.1 1.5-1.8 1.9-.8.5-1.7.9-2.7 1.1-1 .2-2.1.3-3.2.3-1.2 0-2.3-.1-3.3-.3-1.2 0-2.1-.3-2.9-.7zm41.5.8h-4.7v-8.6c0-2.2-.8-3.3-2.4-3.3-.8 0-1.4.3-1.9 1s-.7 1.5-.7 2.5v8.5h-4.7v-8.7c0-2.1-.8-3.2-2.4-3.2-.8 0-1.4.3-1.9.9s-.7 1.5-.7 2.6v8.4h-4.7V14.7h4.7v2.4h.1c1-1.7 2.9-2.8 4.9-2.8 2.1 0 3.6.9 4.4 2.8 1.2-1.9 2.8-2.8 5.1-2.8 3.3 0 4.9 2 4.9 6.1v9.4zm6-17.5c-.8 0-1.4-.2-1.9-.7s-.8-1-.8-1.7.2-1.3.8-1.7c.5-.4 1.2-.7 1.9-.7.8 0 1.4.2 1.9.7.5.4.7 1 .7 1.7s-.2 1.3-.7 1.7c-.4.4-1.1.7-1.9.7zm2.3 12.4c0 .6.2 1.1.5 1.5.3.3.7.5 1.2.5.3 0 .5 0 .8-.1.3 0 .5-.1.8-.1v3.3c-.6.1-1.2.3-1.8.4-.6.1-1.3.1-2 .1-1.1.1-2.2-.4-3-1.2-.4-.4-.6-.9-.8-1.4-.2-.6-.3-1.2-.3-1.9V14.7h4.6v10zm9.7 0c0 .6.2 1.1.5 1.5.3.3.7.5 1.2.5.3 0 .5 0 .8-.1.3 0 .5-.1.8-.1v3.3c-.6.1-1.2.3-1.8.4-.6.1-1.3.1-2 .1-1.1.1-2.2-.4-3-1.2-.4-.4-.6-.9-.8-1.4-.2-.6-.3-1.2-.3-1.9V7.4h4.6v17.3zm18.8-1.1h-9.9c.2 2.2 1.5 3.3 4.2 3.3 1.7 0 3.1-.4 4.4-1.2v3.4c-1.4.7-3.2 1.1-5.5 1.1-2.4 0-4.3-.7-5.7-2-1.3-1.4-2-3.2-2-5.7s.7-4.5 2.2-6 3.3-2.2 5.4-2.2c2.2 0 3.9.7 5.1 2s1.8 3.1 1.8 5.3v2zm-4.3-2.9c0-2.2-.9-3.3-2.6-3.3-.7 0-1.4.3-1.9.9-.6.6-.9 1.4-1 2.3h5.5v.1zM57.6 46.6c-.4 0-.8-.1-1.1-.2-.3-.1-.6-.3-.9-.6s-.4-.6-.6-1c-.1-.4-.2-.9-.2-1.4s.1-1 .2-1.4.3-.7.6-1c.3-.3.6-.5.9-.7.3-.1.7-.2 1.2-.2h.6c.2 0 .4.1.5.1s.3.1.4.2c.1.1.3.1.4.2v1c-.1-.1-.2-.1-.3-.2-.1-.1-.3-.2-.4-.3-.2-.1-.3-.2-.5-.2-.2-.1-.4-.1-.7-.1-.3 0-.5.1-.8.2-.2.1-.5.3-.6.5-.2.2-.3.5-.4.8s-.1.7-.1 1.1c0 .4.1.8.2 1.1s.2.6.4.8c.2.2.4.4.6.5s.5.2.8.2c.2 0 .5 0 .7-.1s.4-.1.6-.2c.2-.1.3-.2.4-.3s.2-.2.3-.2h-.2v1c-.1.1-.3.1-.4.2-.1.1-.3.1-.4.2-.2.1-.4.1-.5.1-.2-.2-.4-.1-.7-.1m4.3-.2v-5.6h-2.1V40h5.1v.8h-2.1v5.6h-.9zm8.1-5.6c.2.3.4.6.6 1 .1.4.2.9.2 1.4s-.1 1-.2 1.4-.3.8-.6 1c-.3.3-.6.5-.9.7-.3.1-.7.2-1.1.2s-.8-.1-1.2-.2c-.3-.1-.6-.4-.9-.6-.2-.3-.4-.6-.6-1-.1-.4-.2-.9-.2-1.4s.1-1 .2-1.4.3-.8.6-1c.2-.3.5-.5.9-.6.8-.3 1.6-.3 2.4 0 .3 0 .6.3.8.5zm-.1 2.5c0-.4 0-.8-.1-1.1s-.2-.6-.4-.8c-.2-.2-.4-.4-.6-.5s-.5-.2-.8-.2-.6.1-.8.2c-.2.1-.4.3-.6.5s-.3.5-.4.8-.1.7-.1 1.1c0 .8.2 1.5.5 1.9.4.4.8.7 1.4.7s1.1-.2 1.4-.7.5-1.1.5-1.9zm7.2 3.1h-.8v-5.5l-1.7 3.7h-.5l-1.6-3.7v5.5h-.8v-6.3h1.2l1.6 3.5 1.5-3.5h1.2l-.1 6.3zm.6 0l2.1-6.3h1l2.1 6.3H82l-.6-1.8H79l-.6 1.8h-.7zm3.6-2.4l-1-3-1 3h2zm3.8 2.4v-5.6H83V40h5.1v.8H86v5.6h-.9zm8.1-5.6c.2.3.4.6.6 1 .1.4.2.9.2 1.4s-.1 1-.2 1.4c-.1.4-.3.8-.6 1-.3.3-.6.5-.9.7-.3.1-.7.2-1.1.2-.4 0-.8-.1-1.2-.2-.3-.1-.6-.4-.9-.6-.2-.3-.4-.6-.6-1-.1-.4-.2-.9-.2-1.4s.1-1 .2-1.4.3-.8.6-1c.2-.3.5-.5.9-.6.8-.3 1.6-.3 2.4 0 .3 0 .6.3.8.5zm-.1 2.5c0-.4 0-.8-.1-1.1s-.2-.6-.4-.8-.4-.4-.6-.5c-.2-.1-.5-.2-.8-.2s-.6.1-.8.2c-.2.1-.4.3-.6.5s-.3.5-.4.8-.1.7-.1 1.1c0 .8.2 1.5.5 1.9.4.4.8.7 1.4.7.6 0 1.1-.2 1.4-.7.3-.5.5-1.1.5-1.9zm6.5 3.1h-.8v-5.6h-2.2v1.7c0 .6-.1 1.1-.1 1.5s-.1.7-.2 1c-.1.3-.2.5-.3.6-.1.2-.2.3-.3.4-.1.1-.3.2-.4.3-.1.1-.3.1-.5.1h-.3v-.8h.6c.1 0 .2-.1.2-.1.2-.2.3-.5.4-1 .1-.5.2-1.1.2-2V40.1h3.8l-.1 6.3zm5.7-5.6c.2.3.4.6.6 1 .1.4.2.9.2 1.4s-.1 1-.2 1.4c-.1.4-.3.8-.6 1-.3.3-.6.5-.9.7-.3.1-.7.2-1.1.2-.4 0-.8-.1-1.2-.2-.3-.1-.6-.4-.9-.6-.2-.3-.4-.6-.6-1-.1-.4-.2-.9-.2-1.4s.1-1 .2-1.4c.1-.4.3-.8.6-1 .2-.3.5-.5.9-.6.8-.3 1.6-.3 2.4 0 .3 0 .6.3.8.5zm-.1 2.5c0-.4 0-.8-.1-1.1s-.2-.6-.4-.8-.4-.4-.6-.5c-.2-.1-.5-.2-.8-.2s-.6.1-.8.2c-.2.1-.4.3-.6.5-.2.2-.3.5-.4.8-.1.3-.1.7-.1 1.1 0 .8.2 1.5.5 1.9.4.4.8.7 1.4.7.6 0 1.1-.2 1.4-.7.3-.5.5-1.1.5-1.9zm5.6-2.4h-2.9v5.6h-.8v-6.3h3.8v.7h-.1zm5.2 5.5h-.8v-5l-2.9 5h-.9v-6.3h.8v5l2.8-5h.9l.1 6.3zm5.3 0h-.8v-2.5h-1l-1.9 2.5h-1l2-2.7c-.4-.1-.8-.4-1-.7s-.4-.7-.4-1.2c0-.3.1-.6.2-.8.1-.2.3-.4.5-.6.2-.1.4-.2.7-.3s.6-.1.9-.1h1.7v6.4h.1zm-.8-3.2v-2.4H119c-.1 0-.3.1-.4.2-.1.1-.2.2-.3.4s-.1.3-.1.5 0 .4.1.6c.1.1.1.3.3.4.1.1.3.2.5.3.2 0 .4.1.6.1l.8-.1zm9.6 5.2h-.8v-1.5h-4.1v1.5h-.8v-2.2h.3c.4-.6.7-1.4.9-2.4s.3-2.1.3-3.2h3.5v5.6h.6v2.2h.1zm-1.4-2.2v-4.9h-1.9c0 1.7-.5 3.4-1.2 4.9h3.1zm6.9.8h-.8v-5.6h-2.2v1.7c0 .6-.1 1.1-.1 1.5s-.1.7-.2 1-.2.5-.3.6c-.1.2-.2.3-.3.4-.1.1-.3.2-.4.3s-.3.1-.5.1h-.3v-.8h.6c.1 0 .2-.1.2-.1.2-.2.3-.5.4-1 .1-.5.2-1.1.2-2V40.7h3.8l-.1 6.3zm5.3 0h-.8v-2.5h-1l-1.9 2.5h-1l2-2.7c-.4-.1-.8-.4-1-.7-.2-.3-.4-.7-.4-1.2 0-.3.1-.6.2-.8.1-.2.3-.4.5-.6.2-.1.4-.2.7-.3.3-.1.6-.1.9-.1h1.7V47h.1zm-.8-3.2v-2.4h-1.5c-.1 0-.3.1-.4.2-.1.1-.2.2-.3.4s-.1.3-.1.5 0 .4.1.6c.1.1.1.3.3.4.1.1.3.2.5.3.2 0 .4.1.6.1l.8-.1zm10 4.6h-.8v-1.5h-4.1v1.5h-.8v-2.2h.3c.4-.6.7-1.4.9-2.4.2-1 .3-2.1.3-3.2h3.5v5.6h.6v2.2h.1zm-1.5-2.2v-4.9h-1.9c0 1.7-.5 3.4-1.2 4.9h3.1zm2.3.8v-6.3h4v.8h-3.1v1.7h2.9v.8h-2.9v2.2h3.1v.8h-4zm6.4 0v-5.6h-2.1v-.8h5.1v.8h-2.1V47h-.9zm3.6 0v-6.3h4v.8h-3.1v1.7h2.9v.8h-2.9v2.2h3.1v.8h-4zm9.4 0h-.8v-5l-2.9 5h-.9v-6.3h.8v5l2.8-5h.9l.1 6.3zm-.6-8.3c0 .4-.1.8-.4 1-.3.3-.7.4-1.2.4s-.9-.1-1.2-.4c-.3-.3-.4-.6-.4-1h.8c0 .3.1.5.2.7.1.1.3.2.6.2s.5-.1.6-.2c.1-.1.2-.4.2-.7h.8zm9.2 8.3h-.8v-5l-2.9 5h-.9v-6.3h.8v5l2.8-5h.9V47h.1zm8.3-2c0 .3-.1.6-.2.8-.1.2-.3.4-.5.6-.2.2-.5.3-.8.4-.3.1-.6.1-1.1.1h-1.8v-6.3h2.7c.2 0 .4.1.7.2.2.1.4.3.5.5s.2.4.2.7-.1.6-.2.8c-.2.2-.4.4-.7.6.4.1.7.3.9.6.2.3.3.6.3 1zm-1.1-2.8c0-.2 0-.3-.1-.4-.1-.1-.1-.2-.2-.3-.1-.1-.3-.1-.5-.1h-1.5v1.8h1.6c.1 0 .3-.1.4-.2l.3-.3c-.1-.2 0-.3 0-.5zm.3 2.9c0-.2 0-.4-.1-.6-.1-.2-.2-.3-.4-.4-.1-.1-.3-.1-.4-.1h-1.7v2.3h.7c.4 0 .7 0 .9-.1.2 0 .4-.1.6-.2.2-.1.3-.2.3-.4 0-.1.1-.3.1-.5zm5-1.2c.1.1.3.3.4.5s.1.4.1.7-.1.5-.2.8c-.1.2-.3.5-.5.6-.2.2-.5.3-.8.4-.3.1-.6.1-1 .1s-.8 0-1.1-.1c-.3-.1-.6-.2-.8-.2v-.9h.1c.2.1.5.3.8.4.3.1.7.2 1 .2.2 0 .4 0 .6-.1.2-.1.4-.1.5-.3.1-.1.2-.3.3-.4.1-.1.1-.3.1-.6 0-.2 0-.4-.1-.5s-.2-.3-.3-.4c-.1-.1-.3-.2-.5-.2s-.4-.1-.6-.1h-.7v-.6h.6c.4 0 .8-.1 1.1-.3.3-.2.4-.4.4-.8 0-.2 0-.3-.1-.4l-.3-.3c-.1-.1-.3-.1-.4-.2h-.5c-.2 0-.4 0-.5.1-.2 0-.3.1-.5.2-.1.1-.3.1-.4.2-.1.1-.2.1-.3.2h-.1V41c.2-.1.5-.2.8-.3.3-.1.7-.1 1-.1.3 0 .6 0 .8.1.2.1.5.1.6.3.2.1.4.3.5.5s.2.4.2.7-.1.6-.3.9c-.2.3-.5.4-.9.5v.1c.1 0 .3.1.5.1.2-.1.3 0 .5.1zm5.3-1.3c0 .3 0 .5-.1.8-.1.2-.2.5-.4.6-.2.2-.5.4-.8.5-.3.1-.7.2-1.1.2h-.7v2.4h-.8v-6.3h1.6c.4 0 .7 0 1 .1.3.1.5.2.7.3l.6.6v.8zm-.8 0c0-.2 0-.4-.1-.6-.1-.2-.2-.3-.3-.4-.1-.1-.3-.2-.5-.2s-.4-.1-.7-.1h-.7v2.5h.6c.3 0 .6 0 .8-.1.2-.1.4-.2.5-.3s.2-.3.3-.4c0 0 .1-.2.1-.4zm6.1-1.2c.2.3.4.6.6 1 .1.4.2.9.2 1.4s-.1 1-.2 1.4c-.1.4-.3.8-.6 1-.3.3-.6.5-.9.7-.3.1-.7.2-1.1.2s-.8-.1-1.2-.2c-.3-.1-.6-.4-.9-.6-.2-.3-.4-.6-.6-1-.1-.4-.2-.9-.2-1.4s.1-1 .2-1.4c.1-.4.3-.8.6-1 .2-.3.5-.5.9-.6.8-.3 1.6-.3 2.4 0 .3 0 .6.2.8.5zm-.1 2.4c0-.4 0-.8-.1-1.1s-.2-.6-.4-.8c-.2-.2-.4-.4-.6-.5s-.5-.2-.8-.2c-.3 0-.6.1-.8.2-.2.1-.4.3-.6.5s-.3.5-.4.8c-.1.3-.1.7-.1 1.1 0 .8.2 1.5.5 1.9.4.4.8.7 1.4.7s1.1-.2 1.4-.7c.3-.4.5-1.1.5-1.9zm4.3 3.3c-.4 0-.8-.1-1.1-.2-.3-.1-.6-.3-.9-.6s-.4-.6-.6-1c-.1-.4-.2-.9-.2-1.4s.1-1 .2-1.4c.1-.4.3-.7.6-1 .3-.3.6-.5.9-.7.3-.1.7-.2 1.2-.2h.6c.2 0 .4.1.5.1s.3.1.4.2c.1.1.3.1.4.2v1h-.1c-.1-.1-.2-.2-.3-.2-.1-.1-.3-.2-.4-.3-.2-.1-.3-.2-.5-.2-.2-.1-.4-.1-.7-.1-.3 0-.5.1-.8.2-.2.1-.5.3-.6.5-.2.2-.3.5-.4.8s-.1.7-.1 1.1c0 .4.1.8.2 1.1s.2.6.4.8c.2.2.4.4.6.5.2.1.5.2.8.2.2 0 .5 0 .7-.1.2-.1.4-.1.6-.2.2-.1.3-.2.4-.3s.2-.2.3-.2h.1v1c-.1.1-.3.1-.4.2-.1.1-.3.1-.4.2-.2.1-.4.1-.5.1-.4-.1-.6-.1-.9-.1zm7.4-.1h-.8v-5.6h-2.2v1.7c0 .6-.1 1.1-.1 1.5s-.1.7-.2 1-.2.5-.3.6c-.1.2-.2.3-.3.4-.1.1-.3.2-.4.3s-.3.1-.5.1h-.3v-.8h.6c.1 0 .2-.1.2-.1.2-.2.3-.5.4-1 .1-.5.2-1.1.2-2V40.7h3.8V47h-.1zm5.5-2c0 .3-.1.6-.2.8-.1.3-.3.5-.5.6-.2.2-.5.3-.8.4-.3.1-.6.1-1.1.1h-1.7v-6.3h.8v2.5h.9c.4 0 .8 0 1.1.1.3 0 .5.2.8.4.2.2.4.4.5.6.1.2.2.5.2.8zm-.9 0c0-.2 0-.4-.1-.6-.1-.2-.2-.3-.3-.4-.2-.1-.3-.2-.5-.2h-1.5v2.4h.6c.4 0 .7 0 .9-.1.2 0 .4-.1.5-.2.2-.1.3-.2.3-.4 0 0 .1-.2.1-.5zm2.3 2h-.9v-6.3h.8V47h.1zm5.7 0h-1l-1.5-2.5-1.6 2.5h-.9l2-3.2-2-3.2h1l1.5 2.5 1.5-2.5h.9l-2 3.1 2.1 3.3zM22.7.2l.7 10L26.6.7l-1.9 9.8 5.5-8.3-4.4 9 7.5-6.6-6.6 7.6 9-4.4-8.3 5.6 9.8-2-6.9 2.4c-5.9-.7-9.8-.8-15.1 0l-7.1-2.4 9.8 1.9-8.3-5.6 9 4.4L12 4.6l7.6 6.6-4.4-9 5.6 8.3-2-9.8 3.3 9.5.6-10zm13.2 21.7c-1 6.9-4.6 18.4-7.6 24.1-1.3 2.5-4.2-3.5-4.4-4.9-.4-3.3-2.2-2.1-2.7 0-.3 1.6-1.4 7-3.3 3.9-4.2-6.7-6.3-16.7-8.6-24.2 1.8-3 3.8-4.3 7-5.6 5-1.7 7.8-1.9 13-.1 3.3 1.9 5 3.5 6.6 6.8z" fill="#fff"/><path fill="#588431" d="M39.6 11.7c-.5-.5-.3-1.4.2-2 .7-1.3 1.6-2.1.9-4.1-.3-.9-1-1.1-1.7-1.3-1.3-.3-3.7.8-3.5 2.1.1.9-.1.8-.3 1.3 0 .2-.2.4-.1.7s0 .4 0 .5v.7c.1.5.8.3 1.2.5 1 .5.5 1.3-.3 1.9s-2.1 1.3-3.6 2c.3 0 .6.1 1 .1 3.8.5 9.9 2.6 8.5-.8-.1-.1-.1-.2-.2-.3-.4-.4-1.6-.7-2.1-1.3m-10.2 3.4c-3.1 1-6.7 1.6-9.9 1.1 6.4 2.6 8.8 1.6 11.3 1.1 2.2-.4 1.7 2.6 1.5 4.4-.2 1.6-.3 3.7-1.1 7.1-.8 3.3-.3 3-.9 4.8-1 1.5-2-1.5-3.3-2.5-1.9-1.4-2.8-1.5-2.8-1.6.2-1 .8-.8.9-2.3.1-1.4-.1-2.2-.7-2.6-.9-.6-2.1-.1-2.5.8-.1.4-.2.8-.3 1.5.1 1.8.4 1.3.8 2.4-.4.3-.6.4-1.4.7-1.7.5-3.4 2.6-4.3 3.7-.2.3-.6.6-.8.1-1.6-5.1-1.9-9.9-3.2-13.9-.8-2.6.2-3.3 2.1-2.8 3.1.9 7.5 2.5 11.3 1.2-4-.4-6.9-1.9-9.7-3.3-1.4.5-3 1.1-4.9 1.7-2.8 1-5.3 1.7-6.8 1.4 1 1.7 2.7 2.9 3.5 5 .7 2.1-1.3 4.8 1.7 6.8 2.8 4.2 5.3 14.8 7.5 17.3 2.4 2.8 3.2.8 3.9-1.8.9-3.2.8-4.9 1.1-4.9.4 0 .5 1.1 1.7 4.6.6 1.9 2.4 3.4 3.7 3.2 2.1-.3 4.5-5.3 5.3-8.1.7-2.4 1.3-4.9 2.6-7.3.7-1.2 1-1.8 1.3-2.4 1.3-2.5 1-4.4.7-6 1.1-2.6 2.6-4.5 3.7-6.1-1.7.3-4.7-.7-8.1-2.1-1.4-.2-2.7-.7-3.9-1.2zM13.7 14c-.8-.3-1.6-.7-2.5-.9-1.5-.4-3-1.1-3.2-2.4.9-.1 1.6-.4 1.7-1.1.1-.6-.2-1.9 0-2.6.2-.6-.3-1.1-.7-1.6-1-1.2-2.8-1.3-4-.3-.3.2-.4.4-.6.7-.6.8.2 2.3-.4 2.5-5.2.1-2.1 5.2-4 7.4 3-1 3.1-3.7 3.5-5C4 9 6.8 11.3 5.1 13c-.1.2-.3.3-.4.5-.3 1.9 2.7 1.7 6.4 1 1.1-.2 1.9-.4 2.6-.5zm-9.1-.1c0 .1-.1.2-.1.2s0-.1.1-.2zm12.1 23.9c.3 2 2.1 6.9 2.6 6.5.1-2.1.6-5.2.7-7.5 0-.5.2-1.6.2-2.2 0-.4.2-1-.4-.7-1.6.9-3.5 2-3.1 3.9zm9 .6c0 3.1.8 6.3 1.2 6.3.9-2 1.7-5.3 2.3-7.4.2-.7.5-1.2-.1-1.6-1.2-.7-2.9-1.6-3.2-2.6-.3.3-.4 2.3-.4 3.4.1.7.2 1.3.2 1.9z"/></svg>