<svg xmlns="http://www.w3.org/2000/svg" xmlns:xlink="http://www.w3.org/1999/xlink" id="Layer_1" viewBox="0 0 23 23"><style>.st2{clip-path:url(#SVGID_6_)}</style><defs><path fill="#fff" stroke-width="2" id="SVGID_1_" d="M20.9 15.9c0-.5-.4-1-.9-1-1-.1-2.1-.4-3-.8-.4-.1-.8 0-1.1.2l-1.3 1.3c-.3.3-.8.4-1.2.2A16.4 16.4 0 0 1 7 9.4c-.1-.4 0-.9.3-1.2l1.3-1.3c.3-.3.4-.7.2-1.1-.4-1-.6-2-.8-3-.1-.4-.5-.8-1-.8H4c-.3 0-.5.1-.7.3-.2.2-.3.5-.3.8.3 2.9 1.3 5.7 2.9 8.2 1.5 2.3 3.4 4.2 5.7 5.7 2.5 1.6 5.3 2.6 8.2 2.9.3 0 .6-.1.8-.3.2-.2.3-.5.3-.7v-3zm2 0v3c0 .8-.3 1.7-1 2.2-.6.6-1.5.9-2.3.8-3.2-.4-6.3-1.5-9.1-3.2-2.5-1.6-4.7-3.8-6.3-6.3C2.5 9.7 1.4 6.5 1 3.3c-.1-.9.2-1.7.8-2.3C2.4.4 3.2 0 4 0h3c1.5 0 2.8 1.1 3 2.6.1.9.3 1.8.6 2.6.4 1.1.2 2.3-.6 3.1l-.8.8c1.2 1.8 2.7 3.4 4.6 4.6l.7-.7c.8-.8 2.1-1.1 3.2-.7.8.3 1.7.5 2.6.6 1.5.2 2.6 1.5 2.6 3zm-6-11.3l5.3-5.3c.4-.4 1-.4 1.4 0 .4.4.4 1 0 1.4L18.3 6h3.6c.6 0 1 .4 1 1s-.4 1-1 1h-6c-.6 0-1-.4-1-1V1c0-.6.4-1 1-1s1 .4 1 1v3.6z"/></defs><clipPath id="SVGID_2_"><use overflow="visible" xlink:href="#SVGID_1_"/></clipPath><g clip-path="url(#SVGID_2_)"><defs><path id="SVGID_3_" d="M0-2h24v24H0z"/></defs><clipPath id="SVGID_4_"><use overflow="visible" xlink:href="#SVGID_3_"/></clipPath><g clip-path="url(#SVGID_4_)"><defs><path id="SVGID_5_" d="M-4-6h33v33H-4z"/></defs><clipPath id="SVGID_6_"><use overflow="visible" xlink:href="#SVGID_5_"/></clipPath><g class="st2"><defs><path id="SVGID_7_" d="M1-1h23v23H1z"/></defs><clipPath id="SVGID_8_"><use overflow="visible" xlink:href="#SVGID_7_"/></clipPath><path d="M-4-6h32.9v32.9H-4z" clip-path="url(#SVGID_8_)"/></g><g class="st2"><defs><path id="SVGID_9_" d="M0-2h24v24H0z"/></defs><clipPath id="SVGID_10_"><use overflow="visible" xlink:href="#SVGID_9_"/></clipPath><g clip-path="url(#SVGID_10_)"><defs><path id="SVGID_11_" d="M1-1h23v23H1z"/></defs><clipPath id="SVGID_12_"><use overflow="visible" xlink:href="#SVGID_11_"/></clipPath><path fill="#fff" stroke-width="2" d="M-5-7h34v34H-5z" clip-path="url(#SVGID_12_)"/></g></g></g></g></svg>