<?xml version="1.0" encoding="utf-8"?>
<!-- Generator: Adobe Illustrator 22.1.0, SVG Export Plug-In . SVG Version: 6.00 Build 0)  -->
<svg version="1.1" id="close" xmlns="http://www.w3.org/2000/svg" xmlns:xlink="http://www.w3.org/1999/xlink" x="0px" y="0px"
	 viewBox="0 0 8 8">
<path d="M5.4,4l2.3,2.3c0.4,0.4,0.4,1,0,1.4c-0.4,0.4-1,0.4-1.4,0L4,5.4L1.7,7.7c-0.4,0.4-1,0.4-1.4,0c-0.4-0.4-0.4-1,0-1.4L2.6,4L0.3,1.7c-0.4-0.4-0.4-1,0-1.4s1-0.4,1.4,0L4,2.6l2.3-2.3c0.4-0.4,1-0.4,1.4,0s0.4,1,0,1.4L5.4,4z"/>
</svg>
